<?xml version="1.0" encoding="utf-8"?>
<!-- Generator: Adobe Illustrator 24.1.1, SVG Export Plug-In . SVG Version: 6.00 Build 0)  -->
<svg version="1.1" id="Layer_1" xmlns="http://www.w3.org/2000/svg" xmlns:xlink="http://www.w3.org/1999/xlink" x="0px" y="0px"
	 viewBox="0 0 229.8 78.7" style="enable-background:new 0 0 229.8 78.7;" xml:space="preserve">
<style type="text/css">
	.st0{fill-rule:evenodd;clip-rule:evenodd;fill:#FFFFFF;}
	.st1{fill-rule:evenodd;clip-rule:evenodd;fill:#608BA6;}
	.st2{fill-rule:evenodd;clip-rule:evenodd;fill:#F4EBE9;}
</style>
<path class="st0" d="M138.4,27.3l0.9,0c0,0.2,0,0.3,0,0.4c0,0.1,0,0.2,0,0.3c0,0.1,0,0.3,0,0.4c0,0.1,0,0.2,0,0.3c0,0.3,0,0.5,0,0.8
	c0,0.2,0,0.5-0.1,0.7c-0.1,0.8-0.2,1.6-0.4,2.4c-0.2,0.8-0.4,1.5-0.6,2.3c-0.3,0.7-0.7,1.4-1.2,1.9c-0.5,0.5-1.1,1-1.8,1.3
	c-0.7,0.3-1.5,0.6-2.2,0.7c-0.7,0.1-1.5,0.1-2.3-0.1c-0.8-0.2-1.5-0.4-2.3-0.6c-0.7-0.3-1.5-0.5-2.2-0.9c-0.2-0.1-0.5-0.2-0.7-0.3
	c-0.2-0.1-0.5-0.2-0.7-0.3c-0.2-0.1-0.5-0.2-0.7-0.3c-0.2-0.1-0.5-0.3-0.7-0.3c0,0.1,0,0.1-0.1,0.2c0,0.1,0,0.1,0,0.2
	c-0.1,0.1-0.1,0.1-0.1,0.2c0,0.1,0,0.1-0.1,0.2c-0.1,0.2-0.1,0.3-0.2,0.5c0,0.1-0.1,0.2-0.1,0.3c-0.3,1-0.7,1.9-1.1,2.9
	c-0.4,0.9-0.8,1.8-1.3,2.7c-0.5,0.9-1.1,1.6-1.9,2.3c-0.7,0.6-1.6,1.2-2.6,1.6c-1.1,0.5-2.2,0.8-3.4,0.9c-1.2,0-2.4-0.2-3.7-0.6
	c-1.3-0.4-2.4-1-3.3-1.8c-0.9-0.8-1.6-1.7-2.1-2.9c-0.5-1-0.8-2.1-0.8-3.1c-0.1-1.1,0.1-2.1,0.4-3.1c0.4-1,0.8-2.1,1.2-3.1
	c0.4-1,1-1.9,1.5-2.9c0.1-0.1,0.1-0.2,0.2-0.3c0.1-0.1,0.1-0.2,0.2-0.4c0.1-0.1,0.1-0.2,0.2-0.3c0.1-0.1,0.2-0.2,0.2-0.3
	c0.1-0.1,0.1-0.2,0.2-0.3c0.1-0.1,0.1-0.2,0.2-0.4c0.1-0.1,0.1-0.2,0.1-0.3c0.1-0.1,0.2-0.2,0.2-0.3c-0.1,0-0.2-0.1-0.3-0.1
	c-0.1-0.1-0.2-0.1-0.4-0.2c-0.1,0-0.1,0-0.2-0.1c-0.1,0-0.1-0.1-0.1-0.1c-0.1,0-0.1,0-0.2-0.1c-0.1-0.1-0.1-0.1-0.2-0.1
	c-0.4-0.3-0.9-0.6-1.4-0.9c-0.4-0.3-0.9-0.6-1.4-1c-0.5-0.3-0.9-0.7-1.3-1.1c-0.4-0.4-0.8-0.8-1-1.3c-0.1-0.1-0.2-0.2-0.3-0.3
	c-0.1-0.1-0.2-0.2-0.2-0.3c0-0.1-0.1-0.1-0.1-0.2c0-0.1-0.1-0.1-0.1-0.2c0,0,0-0.1-0.1-0.2c0-0.1-0.1-0.1-0.1-0.2
	c-0.4-1-0.7-1.9-0.7-2.9c0-1,0.2-2.1,0.7-3.1c0.5-1.1,1.1-2,1.8-2.8c0.8-0.8,1.7-1.4,2.7-1.9c0.9-0.4,1.8-0.7,2.7-0.7
	c0.9-0.1,1.7,0,2.5,0.2c0.8,0.2,1.5,0.6,2.1,1.2c0.6,0.5,1.1,1.2,1.5,2.1c0.3,0.7,0.6,1.5,0.6,2.3c0.1,0.8,0.1,1.6-0.1,2.4
	c-0.2,0.8-0.5,1.7-0.9,2.6c-0.4,0.9-1,1.8-1.8,2.8c0.6,0.4,1.2,0.7,1.8,0.9c0.6,0.3,1.1,0.5,1.5,0.8c0.5,0.2,0.9,0.4,1.4,0.7
	c0.5,0.2,0.9,0.4,1.3,0.6c0,0,0,0.1,0,0.1c0,0,0.1,0,0.1,0c0,0,0,0.1,0,0.1c0,0,0.1,0,0.1,0c0.5,0.2,0.9,0.5,1.3,0.7
	c0.4,0.2,0.9,0.4,1.4,0.6c0.5,0.2,1,0.5,1.6,0.8c0.6,0.3,1.3,0.6,2,0.9c0.1-0.2,0.1-0.5,0.2-0.7c0.1-0.3,0.2-0.5,0.2-0.8
	c0.1-0.3,0.1-0.6,0.2-0.9c0.1-0.3,0.1-0.6,0.2-0.9c0.2-0.7,0.4-1.3,0.6-2c0.2-0.7,0.4-1.3,0.7-2c0.3-0.6,0.6-1.1,1.1-1.6
	c0.4-0.5,0.9-0.8,1.5-1.1c0.5-0.2,0.9-0.3,1.4-0.4c0.5,0,0.9,0,1.4,0.1c0.5,0.1,0.8,0.3,1.1,0.6c0.3,0.3,0.6,0.6,0.8,1.1
	c0.2,0.4,0.3,0.9,0.3,1.3c0.1,0.4,0,0.8-0.1,1.2c-0.1,0.4-0.3,0.8-0.6,1.1c-0.3,0.3-0.6,0.5-1,0.7c-0.5,0.2-0.9,0.3-1.3,0.4
	c-0.4,0-0.8-0.1-1.2-0.2c-0.3-0.2-0.7-0.4-1-0.8c-0.3-0.3-0.5-0.7-0.8-1.2l-0.1-0.2c0,0-0.1-0.1-0.1-0.1c0-0.1-0.1-0.1-0.1-0.1
	c-0.1,0-0.1,0-0.1,0c0,0-0.1,0-0.1,0c-0.1,0-0.2,0.2-0.3,0.4c-0.1,0.2-0.2,0.4-0.3,0.8c-0.1,0.4-0.3,0.7-0.4,1.2
	c-0.1,0.3-0.2,0.7-0.4,1.1c0,0.1,0,0.1-0.1,0.2c0,0,0,0.1,0,0.1c0,0.1,0,0.1-0.1,0.2c-0.1,0.3-0.2,0.6-0.2,0.9
	c0,0.3-0.1,0.6-0.2,0.8c-0.1,0.2-0.1,0.5-0.2,0.7c0,0.2-0.1,0.4-0.1,0.5c0.3,0.1,0.5,0.2,0.8,0.4c0.3,0.1,0.6,0.3,0.8,0.4
	c0.2,0.1,0.3,0.1,0.4,0.2c0.2,0.1,0.3,0.1,0.5,0.2c0.2,0.1,0.3,0.2,0.5,0.2c0.2,0.1,0.3,0.1,0.5,0.2c0.7,0.3,1.3,0.6,2,0.8
	c0.7,0.2,1.4,0.4,2.1,0.6c0.7,0.2,1.4,0.3,2.1,0.2c0.7-0.1,1.3-0.3,1.8-0.5c0.4-0.2,0.8-0.4,1-0.7c0.3-0.3,0.5-0.7,0.6-1.1
	c0.2-0.4,0.3-0.8,0.3-1.2c0.1-0.4,0.1-0.9,0.2-1.3c0-0.1,0.1-0.2,0.1-0.3c0-0.1,0-0.3,0-0.4c0-0.1,0.1-0.2,0.1-0.3
	c0-0.1,0-0.3,0-0.4L138.4,27.3z"/>
<path class="st1" d="M110.2,39.3l-3.2-6.9c-0.6-1.2-1.3-2.2-2.3-3.1c-1-0.9-2.1-1.6-3.5-2.1c-1.3-0.5-2.7-0.7-4-0.6
	c-1.3,0-2.6,0.4-3.9,1c-1.4,0.7-2.5,1.4-3.2,2.3c-0.7,0.9-1,1.9-1,3c0,1.1,0.2,2.3,0.4,3.4c0.3,1.1,0.6,2.2,1.1,3.3
	c0,0.1,0.1,0.2,0.1,0.3c0,0.1,0.1,0.2,0.1,0.3c0.1,0.1,0.1,0.2,0.1,0.3c0,0.1,0.1,0.2,0.1,0.3c0.1,0.2,0.2,0.3,0.2,0.5
	c0.1,0.2,0.2,0.3,0.2,0.5l1.2,2.5c0.1,0.1,0.1,0.2,0.1,0.3c0,0,0,0.1,0.1,0.2c0,0,0,0.1,0.1,0.1c0,0,0,0.1,0.1,0.1c0,0,0,0,0,0.1
	c0.6,1.3,1.3,2.5,2,3.6c0.7,1,1.5,2,2.4,2.9c0.9,0.9,1.9,1.3,3.2,1.4c1.3,0.1,2.7-0.3,4.3-1c1.2-0.6,2.3-1.3,3.1-2.2
	c0.9-0.9,1.6-2,2.1-3.2c0.5-1.3,0.7-2.5,0.8-3.6c0-1.2-0.3-2.4-0.8-3.6L110.2,39.3z M104.9,27.9l-10-21.5l-4.8,2.2l-0.5-1.1l5.9-2.8
	c0.6-0.2,1.1-0.4,1.5-0.6c0.4-0.3,0.7-0.5,0.9-0.8c0.2-0.2,0.4-0.5,0.5-0.9c0.1-0.4,0.2-0.8,0.2-1.2l20,43l4.8-2.3l0.5,1.1l-9.9,4.6
	l-2.1-4.4c0,1-0.1,2-0.4,2.9c-0.3,0.9-0.7,1.7-1.3,2.6c-0.6,0.8-1.3,1.5-2,2.1c-0.7,0.6-1.5,1.2-2.5,1.6c-1.8,0.9-3.7,1.4-5.6,1.5
	c-1.8,0.1-3.7-0.2-5.7-0.9c-1.9-0.7-3.5-1.6-4.9-2.8c-1.4-1.2-2.5-2.8-3.4-4.6c-0.8-1.8-1.3-3.6-1.4-5.5c-0.1-1.9,0.2-3.8,0.9-5.7
	c0.7-1.9,1.6-3.6,2.8-5c1.2-1.4,2.7-2.5,4.4-3.3c1-0.5,2-0.8,3-0.9c1-0.2,2.1-0.2,3.1-0.1c1,0.2,2,0.4,2.9,0.9c1,0.4,1.9,1,2.7,1.8
	L104.9,27.9z"/>
<path class="st1" d="M143.5,23.8c0.5,1.5,0.8,3,0.7,4.5c0,1.4-0.3,2.7-0.9,4c-0.6,1.2-1.3,2.3-2.4,3.3c-1,1-2.2,1.8-3.7,2.5
	c-1.9,0.9-3.8,1.5-5.7,1.7c-1.8,0.2-3.7,0-5.6-0.5c-1.8-0.5-3.4-1.3-4.7-2.4c-1.3-1.1-2.4-2.4-3.1-4.1c-0.9-2-1.4-4-1.5-6
	c0-2.1,0.3-4.2,1.1-6.3c0.8-2.2,1.8-4,3.2-5.5c1.4-1.5,3-2.7,5-3.6c1.2-0.5,2.3-0.9,3.5-1.1c1.1-0.2,2.2-0.2,3.3,0
	c1.1,0.2,2,0.5,2.8,1c0.7,0.5,1.3,1.1,1.6,1.8c0.2,0.4,0.3,0.9,0.3,1.3c0,0.4,0,0.8-0.2,1.1c-0.2,0.4-0.4,0.8-0.7,1.1
	c-0.3,0.3-0.6,0.5-1,0.7c-0.3,0.2-0.7,0.2-1.1,0.3c-0.4,0-0.8-0.1-1.1-0.3c-0.4-0.2-0.8-0.4-1.1-0.7c-0.3-0.3-0.5-0.6-0.7-1
	c0,0,0-0.1-0.1-0.1c0,0,0-0.1-0.1-0.1c0,0,0-0.1,0-0.1c0,0,0-0.1-0.1-0.1c0-0.1,0-0.1,0-0.2c-0.1-0.1-0.1-0.3-0.1-0.4
	c0-0.2,0-0.4,0-0.6c0-0.2,0-0.3,0-0.5c0-0.2,0.1-0.3,0.1-0.4c0-0.1,0-0.1,0.1-0.2c0-0.1,0-0.1,0.1-0.2c0,0,0.1,0,0.1,0
	c0-0.1,0-0.1,0.1-0.2c0,0,0-0.1,0-0.1c0-0.1,0-0.1,0.1-0.2c0-0.1,0-0.2,0-0.2c0-0.1,0-0.2-0.1-0.3c-0.1-0.3-0.3-0.4-0.6-0.5
	c-0.3-0.1-0.7-0.1-1.2-0.1c-0.5,0.1-1.1,0.2-1.7,0.4c-0.7,0.2-1.4,0.5-2.3,0.9c-1.6,0.7-2.8,1.6-3.7,2.5c-0.9,0.9-1.5,1.9-1.7,2.9
	c-0.2,1.1-0.1,2.4,0.4,4c0.4,1.6,1.1,3.5,2.1,5.7l1.3,2.7c0.9,2,1.8,3.6,2.7,4.8c0.9,1.2,1.8,2.1,2.7,2.6c0.9,0.5,2,0.7,3.1,0.6
	c1.1-0.1,2.4-0.4,3.8-1.1c1.4-0.6,2.5-1.4,3.5-2.2c1-0.9,1.7-1.9,2.3-3c0.5-1.1,0.9-2.3,0.9-3.6c0.1-1.3,0-2.7-0.4-4.2L143.5,23.8z"
	/>
<path class="st2" d="M110.4,23.4c0,0,0,0.1,0,0.1c0,0,0,0,0.1,0c0,0,0,0,0-0.1c0,0,0.1,0,0.1,0c0.5-0.6,0.9-1.3,1.3-2
	c0.4-0.7,0.7-1.5,1-2.3c0.3-0.8,0.4-1.6,0.4-2.3c0-0.8-0.2-1.6-0.6-2.4c-0.3-0.7-0.8-1.3-1.3-1.7c-0.5-0.5-1.1-0.8-1.8-1
	c-0.7-0.2-1.4-0.3-2.1-0.2c-0.7,0-1.5,0.2-2.2,0.6c-0.6,0.3-1.2,0.7-1.6,1.1c-0.4,0.4-0.7,0.9-1,1.4c-0.2,0.5-0.3,1.1-0.3,1.6
	c0,0.5,0.2,1.1,0.4,1.6c0.2,0.5,0.6,1,1,1.5c0.4,0.4,0.8,0.8,1.3,1.2c0.5,0.4,1,0.7,1.6,1.1c0.5,0.3,1.1,0.6,1.7,0.9
	c0.1,0,0.2,0.1,0.3,0.1c0.1,0,0.2,0.1,0.3,0.1c0.1,0.1,0.2,0.1,0.3,0.2c0.1,0,0.2,0.1,0.3,0.1c0.1,0,0.2,0.1,0.3,0.1
	c0.1,0,0.2,0.1,0.3,0.1c0.1,0.1,0.2,0.1,0.3,0.1c0.1,0,0.2,0.1,0.3,0.1L110.4,23.4z"/>
<path class="st2" d="M108,28.5c0,0.1,0,0.2-0.1,0.2c0,0.1,0,0.1-0.1,0.2c-0.1,0.1-0.1,0.1-0.1,0.2c0,0-0.1,0.1-0.1,0.1
	c0,0.1-0.1,0.1-0.1,0.2c0,0.1,0,0.1-0.1,0.1c-0.1,0.1-0.1,0.1-0.1,0.2c0,0.1,0,0.1-0.1,0.2c-0.3,0.6-0.7,1.1-0.9,1.7
	c-0.3,0.6-0.6,1.2-0.8,1.8c-0.2,0.6-0.3,1.3-0.3,1.9c0.1,0.6,0.2,1.2,0.5,1.8c0.1,0.1,0.1,0.3,0.2,0.4c0.1,0.1,0.1,0.2,0.2,0.3
	c0.1,0.1,0.1,0.3,0.2,0.4c0.1,0.1,0.2,0.2,0.3,0.3c0.6,0.8,1.3,1.6,2.2,2.2c0.9,0.6,1.9,1.1,3.1,1.6c1.1,0.4,2.2,0.6,3.3,0.6
	c1.1,0,2.1-0.3,3.1-0.7c0.1,0,0.2-0.1,0.3-0.1c0.1-0.1,0.3-0.2,0.4-0.3c0.1,0,0.2-0.1,0.3-0.2c0.1-0.1,0.2-0.3,0.4-0.4
	c0.3-0.3,0.5-0.6,0.8-1c0.3-0.4,0.5-0.8,0.7-1.3c0.2-0.5,0.4-1,0.6-1.5c0.2-0.6,0.4-1.3,0.6-2c-0.8-0.4-1.5-0.7-2.1-1
	c-0.7-0.3-1.3-0.6-1.8-0.8c-0.5-0.2-1.1-0.5-1.6-0.7c-0.5-0.3-1-0.5-1.5-0.8c0,0-0.1,0-0.1,0c0,0-0.1-0.1-0.1-0.1
	c-0.1,0-0.1,0-0.2-0.1c0,0,0-0.1,0-0.1c-0.5-0.2-1-0.4-1.5-0.6c-0.5-0.2-1-0.5-1.5-0.8c-0.5-0.3-1.1-0.6-1.7-0.9
	c-0.6-0.4-1.3-0.7-2.1-1.1L108,28.5z"/>
<path class="st1" d="M13,71.3v-3.2c0-0.6-0.1-1.1-0.3-1.6c-0.2-0.5-0.5-1-1-1.4c-0.4-0.4-0.9-0.7-1.4-0.9c-0.5-0.2-1.1-0.3-1.7-0.3
	C8,63.9,7.5,64,7,64.2c-0.4,0.2-0.7,0.5-0.9,1c-0.2,0.4-0.3,0.9-0.4,1.4C5.6,67,5.5,67.5,5.5,68c0,0,0,0.1,0,0.1c0,0,0,0.1,0,0.1
	c0,0.1,0,0.1,0,0.1c0,0,0,0.1,0,0.1c0,0.1,0,0.2,0,0.2c0,0.1,0,0.2,0,0.2v1.2c0,0.1,0,0.1,0,0.1c0,0,0,0,0,0.1c0,0,0,0,0,0.1
	c0,0,0,0,0,0.1c0,0,0,0,0,0c0,0.6,0,1.2,0.1,1.7c0.1,0.5,0.2,1,0.4,1.5c0.2,0.5,0.5,0.9,1,1.1c0.5,0.3,1.1,0.4,1.8,0.4
	c0.6,0,1.1-0.1,1.6-0.3c0.5-0.2,1-0.5,1.4-0.8c0.4-0.4,0.7-0.8,0.9-1.2C12.9,72.4,13,71.9,13,71.3L13,71.3z M13,66v-9.9h-2.2v-0.5
	h2.7c0.3,0,0.5,0,0.7,0c0.2,0,0.3-0.1,0.5-0.1c0.1-0.1,0.2-0.1,0.3-0.2c0.1-0.1,0.2-0.3,0.3-0.4v19.8h2.2v0.5H13v-2
	c-0.2,0.4-0.4,0.7-0.7,1c-0.3,0.3-0.6,0.5-0.9,0.8c-0.4,0.2-0.7,0.3-1.1,0.4c-0.4,0.1-0.8,0.2-1.2,0.2c-0.9,0-1.6-0.1-2.4-0.4
	c-0.7-0.3-1.4-0.7-2-1.3c-0.6-0.6-1.1-1.2-1.4-1.9c-0.3-0.7-0.5-1.5-0.5-2.3c0-0.8,0.1-1.6,0.4-2.3c0.3-0.7,0.8-1.4,1.4-2
	c0.6-0.6,1.2-1.1,1.9-1.4c0.7-0.3,1.4-0.5,2.2-0.5c0.5,0,0.9,0.1,1.3,0.2c0.4,0.1,0.8,0.3,1.2,0.5c0.3,0.2,0.7,0.5,1,0.8
	C12.5,65.3,12.8,65.6,13,66L13,66z"/>
<path class="st1" d="M21.7,55.5c0.2,0,0.4,0.1,0.5,0.2c0.2,0.1,0.3,0.2,0.4,0.3c0.1,0.1,0.2,0.3,0.3,0.4c0.1,0.2,0.1,0.3,0.1,0.5
	c0,0.2,0,0.4-0.1,0.5c-0.1,0.2-0.2,0.3-0.3,0.4c-0.1,0.1-0.3,0.2-0.4,0.3c-0.2,0.1-0.3,0.1-0.5,0.1c-0.2,0-0.4,0-0.5-0.1
	c-0.2-0.1-0.3-0.2-0.4-0.3c-0.1-0.1-0.2-0.3-0.3-0.4c-0.1-0.2-0.1-0.3-0.1-0.5c0-0.2,0-0.3,0.1-0.5c0.1-0.2,0.2-0.3,0.3-0.4
	c0.1-0.1,0.3-0.2,0.4-0.3C21.3,55.6,21.5,55.6,21.7,55.5L21.7,55.5z M20.5,64.5h-2.2V64H21c0.3,0,0.5,0,0.7,0c0.2,0,0.3-0.1,0.5-0.1
	c0.1-0.1,0.2-0.1,0.3-0.2c0.1-0.1,0.2-0.3,0.3-0.4c0,0,0,0,0,0c0,0,0,0,0,0c0,0,0,0,0,0v11.6h2.2v0.5h-6.8v-0.5h2.2V64.5z"/>
<path class="st1" d="M30.3,66.8c0.1-0.5,0.3-0.9,0.5-1.3c0.2-0.4,0.5-0.8,0.8-1c0.3-0.3,0.7-0.5,1-0.7c0.4-0.2,0.8-0.2,1.2-0.2
	c0.3,0,0.6,0,0.8,0.1c0.2,0.1,0.4,0.2,0.6,0.3c0.2,0.1,0.3,0.3,0.4,0.5c0.1,0.2,0.1,0.4,0.1,0.7c0,0.2,0,0.4-0.1,0.6
	c-0.1,0.2-0.1,0.3-0.3,0.4c-0.1,0.1-0.3,0.2-0.4,0.3c-0.1,0.1-0.3,0.1-0.5,0.1c-0.2,0-0.3,0-0.5-0.1c-0.1-0.1-0.3-0.1-0.4-0.3
	c-0.1-0.1-0.2-0.3-0.3-0.4c-0.1-0.2-0.1-0.3-0.1-0.5c0-0.1,0-0.2,0-0.3c0-0.1,0.1-0.2,0.1-0.3c0.1-0.1,0.1-0.2,0.2-0.3
	c0.1-0.1,0.2-0.2,0.3-0.2L33.6,64c0,0,0,0-0.1,0c0,0,0,0,0,0c0,0,0,0,0,0c-0.1,0-0.2,0-0.2,0c-0.1,0-0.1,0-0.2,0
	c-0.1,0-0.2,0-0.2,0.1c-0.1,0-0.1,0-0.2,0.1c-0.2,0.1-0.3,0.3-0.5,0.4c-0.2,0.2-0.3,0.3-0.5,0.6c-0.2,0.2-0.3,0.4-0.5,0.7
	c-0.1,0.3-0.3,0.5-0.3,0.8c0,0.1-0.1,0.2-0.1,0.3c0,0.1,0,0.2-0.1,0.2c0,0.1,0,0.2-0.1,0.2c0,0.1,0,0.1-0.1,0.2
	c0,0.1-0.1,0.3-0.1,0.5c0,0.2,0,0.3,0,0.5c0,0.2,0,0.4,0,0.6c0,0.2,0,0.5,0,0.7v4.9h2.5v0.5h-7.1v-0.5H28V64.5h-2.2V64h2.9
	c0.2,0,0.4,0,0.6,0c0.2,0,0.3-0.1,0.5-0.1c0.1-0.1,0.2-0.1,0.3-0.2c0.1-0.1,0.2-0.2,0.3-0.3V66.8z"/>
<path class="st1" d="M39.8,55.5c0.2,0,0.4,0.1,0.5,0.2c0.2,0.1,0.3,0.2,0.4,0.3c0.1,0.1,0.2,0.3,0.3,0.4c0.1,0.2,0.1,0.3,0.1,0.5
	c0,0.2,0,0.4-0.1,0.5c-0.1,0.2-0.2,0.3-0.3,0.4c-0.1,0.1-0.3,0.2-0.4,0.3c-0.2,0.1-0.3,0.1-0.5,0.1c-0.2,0-0.4,0-0.5-0.1
	c-0.2-0.1-0.3-0.2-0.4-0.3c-0.1-0.1-0.2-0.3-0.3-0.4c-0.1-0.2-0.1-0.3-0.1-0.5c0-0.2,0-0.3,0.1-0.5c0.1-0.2,0.2-0.3,0.3-0.4
	c0.1-0.1,0.3-0.2,0.4-0.3C39.4,55.6,39.6,55.6,39.8,55.5L39.8,55.5z M38.6,64.5h-2.2V64h2.7c0.3,0,0.5,0,0.7,0
	c0.2,0,0.3-0.1,0.5-0.1c0.1-0.1,0.2-0.1,0.3-0.2c0.1-0.1,0.2-0.3,0.3-0.4c0,0,0,0,0,0c0,0,0,0,0,0c0,0,0,0,0,0v11.6h2.2v0.5h-6.8
	v-0.5h2.2V64.5z"/>
<path class="st1" d="M51.2,73.3l0.4,0.1c-0.2,0.4-0.3,0.8-0.6,1c-0.2,0.3-0.4,0.5-0.6,0.6c-0.2,0.1-0.5,0.2-0.8,0.3
	c-0.3,0.1-0.6,0.1-1,0.1c-0.5,0-0.9-0.1-1.3-0.2c-0.4-0.1-0.7-0.3-1-0.5c-0.3-0.2-0.5-0.5-0.6-0.8c-0.1-0.3-0.2-0.7-0.2-1.1v-8.5
	h-2.4V64H44c0.5,0,1,0,1.4-0.2c0.4-0.2,0.8-0.5,1.2-0.9c0.3-0.4,0.6-0.8,0.7-1.2c0.2-0.5,0.3-0.9,0.3-1.5l0.4-0.1V64h3.7v0.5H48v8.8
	c0,0.3,0,0.6,0.1,0.8c0.1,0.2,0.1,0.4,0.2,0.5c0.1,0.1,0.2,0.2,0.4,0.3C48.8,75,49,75,49.3,75c0.2,0,0.4,0,0.6-0.1
	c0.2-0.1,0.4-0.2,0.5-0.3c0.2-0.2,0.3-0.3,0.4-0.5C50.9,73.9,51.1,73.6,51.2,73.3L51.2,73.3z"/>
<path class="st1" d="M59.5,73.3l0.4,0.1c-0.2,0.4-0.3,0.8-0.6,1c-0.2,0.3-0.4,0.5-0.6,0.6c-0.2,0.1-0.5,0.2-0.8,0.3
	c-0.3,0.1-0.6,0.1-1,0.1c-0.5,0-0.9-0.1-1.3-0.2c-0.4-0.1-0.7-0.3-1-0.5c-0.3-0.2-0.5-0.5-0.6-0.8c-0.1-0.3-0.2-0.7-0.2-1.1v-8.5
	h-2.4V64h0.8c0.5,0,1,0,1.4-0.2c0.4-0.2,0.8-0.5,1.2-0.9c0.3-0.4,0.6-0.8,0.7-1.2c0.2-0.5,0.3-0.9,0.3-1.5l0.4-0.1V64h3.7v0.5h-3.7
	v8.8c0,0.3,0,0.6,0.1,0.8c0.1,0.2,0.1,0.4,0.2,0.5c0.1,0.1,0.2,0.2,0.4,0.3c0.2,0.1,0.4,0.1,0.6,0.1c0.2,0,0.4,0,0.6-0.1
	c0.2-0.1,0.4-0.2,0.5-0.3c0.2-0.2,0.3-0.3,0.4-0.5C59.2,73.9,59.4,73.6,59.5,73.3L59.5,73.3z"/>
<path class="st1" d="M70.7,71.5v-4c0-0.6-0.1-1.2-0.2-1.6c-0.1-0.5-0.3-0.8-0.6-1.1c-0.3-0.3-0.6-0.5-1-0.6
	c-0.4-0.2-0.9-0.2-1.5-0.2c-0.7,0-1.3,0.1-1.8,0.2c-0.5,0.1-0.9,0.3-1.2,0.6c-0.3,0.3-0.5,0.7-0.7,1.1c-0.1,0.5-0.2,1-0.2,1.6v4
	c0,0.7,0.1,1.3,0.2,1.7c0.1,0.5,0.3,0.8,0.6,1.1c0.3,0.3,0.7,0.5,1.1,0.7c0.5,0.1,1,0.2,1.7,0.2c0.7,0,1.2-0.1,1.7-0.2
	c0.5-0.1,0.8-0.3,1.1-0.6c0.3-0.3,0.5-0.6,0.6-1.1C70.7,72.8,70.7,72.2,70.7,71.5L70.7,71.5z M67.4,63.4c0.8,0,1.5,0.2,2.2,0.5
	c0.7,0.3,1.3,0.8,1.9,1.4c0.6,0.6,1.1,1.2,1.4,1.9c0.3,0.7,0.5,1.4,0.5,2.2c0,0.8-0.2,1.6-0.5,2.3c-0.3,0.7-0.8,1.4-1.4,2
	c-0.6,0.6-1.3,1.1-2,1.4c-0.7,0.3-1.5,0.4-2.4,0.4c-0.8,0-1.6-0.1-2.4-0.4c-0.7-0.3-1.4-0.8-2.1-1.4c-0.6-0.6-1.1-1.3-1.5-2
	c-0.3-0.7-0.5-1.5-0.5-2.3c0-0.7,0.1-1.4,0.4-2.1c0.3-0.7,0.7-1.3,1.3-1.8s1.2-1,1.9-1.4c0.7-0.3,1.3-0.6,2.1-0.7c0,0,0.1,0,0.1,0
	c0,0,0.1,0,0.1,0c0,0,0,0,0.1,0c0,0,0.1,0,0.1,0c0,0,0.1,0,0.1,0c0,0,0.1,0,0.1,0c0,0,0,0,0.1,0C67.3,63.5,67.3,63.5,67.4,63.4
	L67.4,63.4z"/>
<path class="st0" d="M82.4,63.8C82.4,63.8,82.4,63.8,82.4,63.8C82.4,63.8,82.4,63.8,82.4,63.8C82.4,63.8,82.4,63.8,82.4,63.8
	C82.5,63.8,82.5,63.8,82.4,63.8c0.4-0.1,0.8-0.3,1.1-0.6c0.3-0.3,0.6-0.5,0.9-0.8c0.3-0.3,0.5-0.6,0.6-1c0.2-0.4,0.2-0.8,0.2-1.2
	c0-0.4-0.1-0.7-0.2-1c-0.1-0.3-0.3-0.6-0.6-0.8c-0.3-0.3-0.6-0.4-0.9-0.6c-0.3-0.1-0.7-0.2-1.1-0.2c-0.3,0-0.7,0-0.9,0.1
	c-0.3,0.1-0.5,0.2-0.7,0.4c-0.2,0.2-0.3,0.4-0.5,0.7c-0.1,0.2-0.1,0.5-0.1,0.8c0,0.3,0,0.6,0.1,0.9c0.1,0.3,0.2,0.5,0.3,0.8
	c0.2,0.3,0.3,0.5,0.5,0.8c0.2,0.3,0.4,0.5,0.6,0.8c0,0,0.1,0.1,0.1,0.1c0,0,0.1,0.1,0.1,0.1c0,0.1,0.1,0.1,0.1,0.1
	c0,0,0.1,0.1,0.1,0.1c0,0,0.1,0.1,0.1,0.1c0,0,0.1,0.1,0.1,0.1C82.2,63.6,82.3,63.7,82.4,63.8C82.3,63.8,82.4,63.8,82.4,63.8
	L82.4,63.8z M80.3,65.5C80.2,65.6,80.2,65.6,80.3,65.5c-0.1,0.1-0.1,0.1-0.1,0.1c0,0-0.1,0-0.1,0.1c0,0,0,0-0.1,0c0,0,0,0-0.1,0.1
	c0,0,0,0-0.1,0c0,0-0.1,0-0.1,0.1c0,0,0,0-0.1,0.1c-0.3,0.2-0.5,0.4-0.8,0.6c-0.3,0.2-0.5,0.4-0.7,0.6c-0.2,0.2-0.4,0.5-0.5,0.8
	c-0.1,0.3-0.1,0.6-0.1,0.9c0,0.1,0,0.2,0,0.2c0,0.1,0,0.1,0,0.2c0,0.1,0,0.2,0,0.2c0,0.1,0,0.1,0.1,0.2c0.1,0.5,0.3,1,0.5,1.5
	c0.3,0.5,0.6,0.9,1,1.3c0.4,0.4,0.9,0.7,1.3,1c0.5,0.2,1,0.3,1.5,0.3c0.1,0,0.1,0,0.2,0c0.1,0,0.2,0,0.2,0c0.1,0,0.1,0,0.2,0
	c0.1,0,0.2-0.1,0.2-0.1c0.2-0.1,0.4-0.1,0.6-0.3c0.2-0.1,0.4-0.3,0.6-0.4c0.2-0.2,0.4-0.3,0.6-0.6c0.2-0.2,0.4-0.5,0.7-0.8
	c-0.3-0.3-0.5-0.6-0.8-0.9c-0.2-0.3-0.4-0.5-0.6-0.8c-0.2-0.2-0.4-0.4-0.6-0.6c-0.2-0.2-0.3-0.4-0.5-0.6c0,0,0,0-0.1,0
	c0,0,0,0,0-0.1c0,0,0,0-0.1-0.1c0,0,0,0,0-0.1c-0.2-0.2-0.3-0.4-0.5-0.6c-0.2-0.2-0.3-0.4-0.5-0.7c-0.2-0.2-0.4-0.5-0.6-0.8
	C80.8,66.2,80.5,65.9,80.3,65.5L80.3,65.5z M94.1,71.3l0.4,0.2c0,0.1,0,0.1-0.1,0.2c0,0.1,0,0.1-0.1,0.1c0,0.1-0.1,0.1-0.1,0.2
	c0,0,0,0.1-0.1,0.1c-0.1,0.1-0.1,0.2-0.2,0.3c-0.1,0.1-0.1,0.2-0.2,0.3c-0.2,0.3-0.4,0.7-0.7,1c-0.2,0.3-0.5,0.6-0.8,0.9
	c-0.3,0.3-0.6,0.5-0.9,0.6c-0.3,0.1-0.7,0.2-1.1,0.2c-0.4,0-0.8-0.1-1.1-0.2c-0.3-0.1-0.7-0.3-1-0.5c-0.3-0.2-0.6-0.5-0.9-0.8
	c-0.3-0.3-0.5-0.6-0.8-0.8c-0.1-0.1-0.2-0.2-0.3-0.3c-0.1-0.1-0.2-0.2-0.3-0.3c-0.1-0.1-0.2-0.2-0.3-0.3c-0.1-0.1-0.2-0.2-0.2-0.3
	c0,0,0,0-0.1,0.1c0,0,0,0-0.1,0.1c0,0-0.1,0-0.1,0.1c0,0,0,0-0.1,0.1c-0.1,0.1-0.1,0.1-0.2,0.2c0,0-0.1,0.1-0.1,0.1
	c-0.3,0.4-0.7,0.7-1.1,1.1c-0.4,0.3-0.7,0.6-1.1,0.9c-0.4,0.3-0.8,0.5-1.3,0.6c-0.5,0.1-1,0.2-1.5,0.2c-0.6,0-1.2-0.1-1.7-0.3
	c-0.5-0.2-1.1-0.6-1.5-1c-0.5-0.5-0.9-1-1.1-1.5c-0.2-0.5-0.3-1.1-0.3-1.7c0-0.6,0.1-1.1,0.3-1.5c0.2-0.5,0.5-0.9,0.8-1.3
	c0.4-0.4,0.8-0.8,1.2-1.1c0.4-0.3,0.8-0.7,1.3-1c0.1,0,0.1-0.1,0.1-0.1c0.1,0,0.1-0.1,0.2-0.1c0,0,0.1,0,0.1-0.1
	c0.1,0,0.1-0.1,0.2-0.1c0.1,0,0.1-0.1,0.1-0.1c0.1,0,0.1-0.1,0.2-0.1c0,0,0.1,0,0.1-0.1c0.1,0,0.1-0.1,0.2-0.1c0,0-0.1-0.1-0.1-0.1
	c0-0.1-0.1-0.1-0.1-0.2c0,0,0,0-0.1-0.1c0,0,0,0,0-0.1c0,0,0,0-0.1-0.1c0,0,0-0.1-0.1-0.1c-0.1-0.2-0.3-0.4-0.4-0.7
	c-0.1-0.2-0.3-0.5-0.4-0.7c-0.1-0.3-0.3-0.5-0.3-0.8c-0.1-0.3-0.2-0.5-0.2-0.8c0-0.1,0-0.1-0.1-0.2c0-0.1,0-0.1,0-0.2
	c0,0,0-0.1,0-0.1c0,0,0-0.1,0-0.1c0,0,0,0,0-0.1c0,0,0-0.1,0-0.1c0-0.5,0.1-1,0.3-1.5c0.2-0.5,0.5-0.9,1-1.2
	c0.4-0.4,0.9-0.7,1.4-0.9c0.5-0.2,1-0.3,1.6-0.3c0.5,0,1,0.1,1.4,0.2c0.4,0.1,0.8,0.3,1.1,0.6c0.3,0.3,0.5,0.6,0.7,1
	c0.2,0.4,0.2,0.8,0.2,1.2c0,0.4-0.1,0.8-0.2,1.2c-0.1,0.4-0.3,0.7-0.6,1c-0.3,0.3-0.6,0.6-1,1c-0.4,0.3-0.8,0.6-1.4,0.9
	c0.2,0.3,0.4,0.6,0.6,0.8c0.2,0.2,0.4,0.5,0.5,0.7c0.2,0.2,0.3,0.4,0.5,0.6c0.2,0.2,0.3,0.4,0.4,0.6c0,0,0,0,0,0.1c0,0,0,0,0.1,0
	c0,0,0,0,0,0c0,0,0,0,0.1,0c0.2,0.2,0.3,0.4,0.4,0.6c0.2,0.2,0.3,0.4,0.5,0.6c0.2,0.2,0.4,0.4,0.6,0.7c0.2,0.3,0.4,0.5,0.7,0.8
	c0.1-0.1,0.2-0.2,0.2-0.3c0.1-0.1,0.2-0.2,0.3-0.3c0.1-0.1,0.2-0.2,0.3-0.3c0.1-0.1,0.2-0.2,0.3-0.3c0.2-0.3,0.4-0.5,0.7-0.8
	c0.2-0.3,0.5-0.5,0.7-0.7c0.3-0.2,0.5-0.4,0.8-0.5s0.6-0.2,0.9-0.2c0.3,0,0.5,0,0.7,0.1s0.4,0.2,0.6,0.3c0.2,0.2,0.3,0.3,0.4,0.5
	c0.1,0.2,0.1,0.4,0.1,0.6c0,0.2,0,0.4-0.1,0.6c-0.1,0.2-0.2,0.4-0.3,0.5c-0.1,0.2-0.3,0.3-0.5,0.3c-0.2,0.1-0.4,0.1-0.6,0.1
	c-0.3,0-0.5,0-0.7-0.1c-0.2-0.1-0.3-0.2-0.5-0.3c-0.1-0.2-0.2-0.3-0.3-0.6c-0.1-0.2-0.1-0.4-0.1-0.7v-0.1c0,0,0,0,0-0.1
	c0,0,0-0.1,0-0.1c0,0,0,0-0.1,0c0,0,0,0-0.1,0c-0.1,0-0.1,0-0.2,0.1c-0.1,0.1-0.2,0.2-0.3,0.3c-0.1,0.1-0.3,0.3-0.4,0.4
	c-0.1,0.1-0.3,0.3-0.4,0.4c0,0,0,0-0.1,0.1c0,0,0,0,0,0.1s0,0-0.1,0.1c-0.1,0.1-0.2,0.2-0.3,0.3c-0.1,0.1-0.2,0.2-0.3,0.3
	c-0.1,0.1-0.2,0.2-0.2,0.3c-0.1,0.1-0.1,0.1-0.2,0.2c0.1,0.1,0.2,0.2,0.3,0.3c0.1,0.1,0.2,0.2,0.3,0.3c0.1,0.1,0.1,0.1,0.1,0.2
	c0.1,0.1,0.1,0.1,0.2,0.2c0.1,0.1,0.1,0.1,0.2,0.2c0.1,0.1,0.1,0.1,0.2,0.2c0.2,0.3,0.5,0.5,0.7,0.8c0.3,0.3,0.5,0.5,0.8,0.7
	c0.3,0.2,0.6,0.4,0.9,0.5c0.3,0.1,0.6,0.1,0.9,0.1c0.2,0,0.4,0,0.6-0.1c0.2-0.1,0.4-0.2,0.5-0.3c0.2-0.2,0.3-0.3,0.4-0.5
	c0.1-0.2,0.2-0.4,0.3-0.6c0,0,0.1-0.1,0.1-0.1c0-0.1,0.1-0.1,0.1-0.2c0,0,0.1-0.1,0.1-0.1C94,71.5,94,71.4,94.1,71.3L94.1,71.3z"/>
<path class="st1" d="M107,71.3c-0.1,0.7-0.3,1.3-0.5,1.8c-0.3,0.5-0.6,1-1,1.4c-0.4,0.4-0.9,0.6-1.5,0.8c-0.5,0.2-1.2,0.3-1.8,0.3
	c-0.9,0-1.7-0.1-2.5-0.4c-0.7-0.3-1.4-0.6-2-1.2c-0.6-0.5-1.1-1.1-1.4-1.7c-0.3-0.6-0.5-1.3-0.5-2.1c0-0.9,0.2-1.8,0.5-2.5
	c0.3-0.8,0.9-1.5,1.5-2.2c0.7-0.7,1.4-1.2,2.2-1.5c0.8-0.3,1.6-0.5,2.5-0.5c0.5,0,1,0.1,1.5,0.2c0.5,0.1,0.9,0.3,1.2,0.6
	c0.4,0.3,0.7,0.5,0.9,0.9c0.2,0.3,0.3,0.6,0.3,1c0,0.2,0,0.4-0.1,0.6c-0.1,0.2-0.1,0.3-0.3,0.4c-0.1,0.1-0.3,0.2-0.4,0.3
	c-0.2,0.1-0.3,0.1-0.5,0.1c-0.2,0-0.3,0-0.5-0.1c-0.1-0.1-0.3-0.2-0.4-0.3c-0.1-0.1-0.2-0.3-0.3-0.4c-0.1-0.2-0.1-0.3-0.1-0.5
	c0,0,0,0,0-0.1c0,0,0,0,0-0.1c0,0,0,0,0,0c0,0,0,0,0-0.1c0,0,0,0,0-0.1c0-0.1,0-0.1,0-0.2c0-0.1,0.1-0.2,0.1-0.2
	c0-0.1,0.1-0.1,0.1-0.2c0-0.1,0.1-0.1,0.1-0.1c0,0,0,0,0.1-0.1c0,0,0,0,0.1-0.1c0,0,0,0,0,0c0,0,0,0,0.1-0.1c0,0,0,0,0,0
	c0,0,0,0,0.1-0.1c0,0,0-0.1,0-0.1c0,0,0-0.1,0-0.1c0-0.1,0-0.2-0.1-0.3c-0.1-0.1-0.2-0.2-0.4-0.2c-0.2-0.1-0.4-0.1-0.7-0.1
	c-0.3,0-0.6-0.1-1-0.1c-0.7,0-1.3,0.1-1.8,0.3c-0.5,0.2-0.9,0.4-1.2,0.8c-0.3,0.4-0.4,0.9-0.6,1.6c-0.1,0.7-0.2,1.5-0.2,2.5v1.2
	c0,0.9,0.1,1.7,0.2,2.3c0.1,0.6,0.3,1.1,0.6,1.5c0.3,0.3,0.6,0.6,1.1,0.8c0.4,0.2,1,0.3,1.6,0.3s1.2-0.1,1.7-0.2
	c0.5-0.2,1-0.4,1.4-0.8c0.4-0.3,0.7-0.7,1-1.2c0.3-0.5,0.5-1,0.6-1.7L107,71.3z"/>
<path class="st1" d="M117.8,71.5v-4c0-0.6-0.1-1.2-0.2-1.6c-0.1-0.5-0.3-0.8-0.6-1.1c-0.3-0.3-0.6-0.5-1-0.6
	c-0.4-0.2-0.9-0.2-1.5-0.2c-0.7,0-1.3,0.1-1.8,0.2c-0.5,0.1-0.9,0.3-1.2,0.6c-0.3,0.3-0.5,0.7-0.7,1.1c-0.1,0.5-0.2,1-0.2,1.6v4
	c0,0.7,0.1,1.3,0.2,1.7c0.1,0.5,0.3,0.8,0.6,1.1c0.3,0.3,0.7,0.5,1.1,0.7c0.5,0.1,1,0.2,1.7,0.2s1.2-0.1,1.7-0.2
	c0.5-0.1,0.8-0.3,1.1-0.6c0.3-0.3,0.5-0.6,0.6-1.1C117.7,72.8,117.8,72.2,117.8,71.5L117.8,71.5z M114.4,63.4c0.8,0,1.5,0.2,2.2,0.5
	c0.7,0.3,1.3,0.8,1.9,1.4c0.6,0.6,1.1,1.2,1.4,1.9c0.3,0.7,0.5,1.4,0.5,2.2c0,0.8-0.2,1.6-0.5,2.3c-0.3,0.7-0.8,1.4-1.4,2
	c-0.6,0.6-1.3,1.1-2,1.4c-0.7,0.3-1.5,0.4-2.4,0.4c-0.8,0-1.6-0.1-2.4-0.4c-0.7-0.3-1.4-0.8-2.1-1.4c-0.6-0.6-1.1-1.3-1.5-2
	c-0.3-0.7-0.5-1.5-0.5-2.3c0-0.7,0.1-1.4,0.4-2.1c0.3-0.7,0.7-1.3,1.3-1.8c0.6-0.6,1.2-1,1.9-1.4c0.7-0.3,1.3-0.6,2.1-0.7
	c0,0,0.1,0,0.1,0c0,0,0.1,0,0.1,0c0,0,0,0,0.1,0c0,0,0.1,0,0.1,0c0,0,0.1,0,0.1,0c0,0,0.1,0,0.1,0c0,0,0,0,0.1,0
	C114.3,63.5,114.4,63.5,114.4,63.4L114.4,63.4z"/>
<path class="st1" d="M126.4,66.3c0.2-0.4,0.5-0.8,0.8-1.1c0.3-0.3,0.7-0.6,1.1-0.9c0.4-0.2,0.9-0.4,1.3-0.5c0.5-0.1,1-0.2,1.5-0.2
	c0.6,0,1.2,0.1,1.7,0.2c0.5,0.2,0.9,0.4,1.2,0.7c0.3,0.3,0.6,0.7,0.7,1.2c0.2,0.5,0.3,1,0.3,1.6v7.4h2.2v0.5h-6.9v-0.5h2.2v-8.5
	c0-0.4,0-0.7-0.1-1c-0.1-0.3-0.2-0.5-0.3-0.7c-0.1-0.2-0.3-0.3-0.6-0.4c-0.3-0.1-0.5-0.1-0.9-0.1c-0.5,0-0.9,0.1-1.4,0.2
	c-0.4,0.2-0.8,0.4-1.2,0.7c-0.4,0.3-0.8,0.7-1.1,1c-0.3,0.4-0.5,0.8-0.7,1.3v7.4h2.3v0.5h-6.8v-0.5h2.2V64.5h-2.2V64h2.8
	c0.3,0,0.5,0,0.7,0c0.2,0,0.4-0.1,0.5-0.1c0.1-0.1,0.2-0.1,0.3-0.2c0.1-0.1,0.2-0.3,0.3-0.4V66.3z"/>
<path class="st1" d="M138.3,71.1h0.4c0.1,0.7,0.3,1.2,0.5,1.7c0.3,0.5,0.6,0.9,1,1.2c0.4,0.3,0.8,0.6,1.3,0.8c0.5,0.2,1,0.3,1.6,0.3
	c0.4,0,0.9-0.1,1.2-0.2s0.7-0.3,1-0.6c0.3-0.3,0.5-0.5,0.6-0.8c0.2-0.3,0.2-0.7,0.2-1.1c0-0.4-0.1-0.7-0.2-1
	c-0.1-0.3-0.3-0.5-0.5-0.7c-0.2-0.2-0.5-0.3-0.9-0.4c-0.3-0.1-0.7-0.1-1.2-0.1l-2-0.1c-0.4,0-0.8,0-1.2-0.1c-0.4-0.2-0.7-0.4-1-0.7
	c-0.3-0.3-0.5-0.6-0.6-1c-0.1-0.4-0.2-0.8-0.2-1.3c0-0.6,0.1-1.1,0.3-1.5c0.2-0.4,0.5-0.8,0.8-1.2c0.4-0.3,0.8-0.6,1.2-0.8
	c0.5-0.2,1-0.3,1.6-0.3c0.2,0,0.4,0,0.6,0.1c0.2,0,0.4,0,0.6,0.1c0.2,0.1,0.3,0.1,0.5,0.2c0.2,0,0.3,0.1,0.5,0.1
	c0.2,0.1,0.3,0.1,0.4,0.2c0.1,0.1,0.2,0.1,0.3,0.1c0.1,0.1,0.2,0.1,0.3,0.1c0.1,0,0.2,0,0.2,0c0,0,0.1,0,0.1,0c0,0,0,0,0.1-0.1
	c0,0,0,0,0-0.1c0,0,0-0.1,0-0.1c0,0,0-0.1,0-0.1c0-0.1,0-0.1,0-0.2v-0.1v-0.2h0.4l0.1,3.4h-0.4c-0.1-0.5-0.2-0.9-0.4-1.2
	c-0.2-0.4-0.4-0.7-0.8-0.9c-0.3-0.3-0.7-0.4-1.1-0.6c-0.4-0.1-0.9-0.2-1.5-0.2c-0.4,0-0.9,0-1.2,0.1c-0.4,0.1-0.7,0.3-1,0.5
	c-0.3,0.2-0.5,0.4-0.6,0.7c-0.1,0.3-0.2,0.6-0.2,0.9c0,0.3,0.1,0.6,0.2,0.8c0.1,0.2,0.3,0.4,0.6,0.6c0.3,0.2,0.6,0.3,1,0.4
	c0.4,0.1,0.8,0.1,1.3,0.1l1.8-0.1c0.5,0,0.9,0.1,1.3,0.3c0.4,0.2,0.7,0.4,1,0.7c0.3,0.3,0.5,0.7,0.6,1.1c0.2,0.4,0.2,0.9,0.2,1.4
	c0,0.6-0.1,1.2-0.3,1.7c-0.2,0.5-0.5,0.9-0.9,1.3c-0.4,0.4-0.9,0.7-1.4,0.8c-0.5,0.2-1.1,0.3-1.7,0.3c-0.3,0-0.5,0-0.7-0.1
	c-0.2,0-0.5-0.1-0.7-0.1c-0.2-0.1-0.4-0.1-0.6-0.2c-0.2-0.1-0.3-0.1-0.5-0.2c-0.1,0-0.2-0.1-0.2-0.1c-0.1,0-0.2-0.1-0.2-0.1
	c-0.1,0-0.1,0-0.2-0.1c-0.1,0-0.1-0.1-0.2-0.1c-0.1-0.1-0.2-0.1-0.3-0.1c-0.1,0-0.2-0.1-0.2-0.1c-0.1,0-0.1,0-0.2,0.1
	c0,0-0.1,0.1-0.1,0.1c0,0.1,0,0.1-0.1,0.2c0,0.1,0,0.2,0,0.3v0.1h-0.4V71.1z"/>
<path class="st1" d="M161.5,74.7h2.2v0.5h-4.6v-2.7c-0.3,0.6-0.5,1-0.8,1.5c-0.3,0.4-0.6,0.7-1,0.9c-0.4,0.2-0.8,0.4-1.3,0.5
	c-0.5,0.1-1,0.2-1.6,0.2c-0.3,0-0.6,0-1-0.1c-0.3-0.1-0.6-0.1-0.9-0.2c-0.3-0.1-0.6-0.2-0.8-0.3c-0.2-0.2-0.4-0.3-0.6-0.5
	c0,0,0,0-0.1-0.1c0,0,0,0-0.1-0.1c0,0,0,0-0.1-0.1c0,0,0,0,0-0.1c-0.1-0.2-0.2-0.3-0.3-0.4c-0.1-0.2-0.1-0.3-0.1-0.5
	c0-0.2-0.1-0.4-0.1-0.6c0-0.3,0-0.5,0-0.8v-7.3h-2.2V64h3.2c0.2,0,0.3,0.1,0.4,0.1c0.1,0,0.2,0,0.3-0.1c0.1,0,0.1,0,0.2-0.1
	c0.1,0,0.1-0.1,0.2-0.1c0,0,0.1-0.1,0.1-0.1c0,0,0.1-0.1,0.1-0.1c0,0,0.1-0.1,0.1-0.1c0,0,0.1-0.1,0.1-0.1v9.4c0,0.5,0,0.9,0.1,1.2
	c0.1,0.3,0.2,0.6,0.3,0.7c0.2,0.2,0.4,0.3,0.6,0.4c0.3,0.1,0.6,0.1,1,0.1c0.6,0,1.1-0.1,1.6-0.3c0.5-0.2,1-0.6,1.4-1
	c0.4-0.4,0.8-0.9,1-1.4c0.2-0.5,0.3-1,0.3-1.6v-6.3h-2.2V64h3.2c0.1,0,0.1,0.1,0.2,0.1c0.1,0,0.1,0,0.2,0c0,0,0.1,0,0.1,0
	c0,0,0.1,0,0.1-0.1c0,0,0,0,0.1,0c0,0,0.1,0,0.1-0.1c0,0,0.1-0.1,0.1-0.1c0.1,0,0.1-0.1,0.2-0.1c0,0,0.1-0.1,0.1-0.1
	c0.1-0.1,0.1-0.1,0.2-0.2V74.7z"/>
<path class="st1" d="M166.3,56.1h-2.2v-0.5h2.8c0.3,0,0.5,0,0.7,0c0.2,0,0.3-0.1,0.5-0.1c0.1-0.1,0.2-0.1,0.3-0.3
	c0.1-0.1,0.2-0.3,0.3-0.4v19.9h2.2v0.5h-6.8v-0.5h2.2V56.1z"/>
<path class="st1" d="M174.7,67.9h5.3c0.1,0,0.2,0.1,0.2,0.1s0.1,0,0.1,0c0,0,0.1,0,0.1-0.1c0,0,0-0.1,0-0.2c0-0.5,0-0.9-0.1-1.4
	s-0.2-0.9-0.3-1.3c-0.2-0.4-0.4-0.7-0.8-0.9c-0.4-0.2-0.9-0.3-1.5-0.3c-0.7,0-1.2,0.1-1.6,0.3c-0.4,0.2-0.7,0.5-0.8,0.9
	c-0.1,0.4-0.3,0.9-0.3,1.4C174.8,66.9,174.7,67.4,174.7,67.9L174.7,67.9z M183,71.3l0.5,0.1c-0.2,0.7-0.4,1.3-0.7,1.8
	c-0.3,0.5-0.7,0.9-1.2,1.3c-0.5,0.4-1,0.6-1.6,0.8c-0.6,0.2-1.2,0.3-1.9,0.3c-0.8,0-1.6-0.1-2.3-0.4c-0.7-0.3-1.3-0.7-1.9-1.3
	c-0.6-0.6-1.1-1.2-1.4-1.9c-0.3-0.7-0.4-1.5-0.4-2.3s0.1-1.6,0.4-2.3c0.3-0.7,0.7-1.4,1.3-2.1c0.6-0.6,1.2-1.1,1.9-1.4
	c0.7-0.3,1.4-0.5,2.1-0.5c0.5,0,1,0.1,1.5,0.2c0.5,0.2,0.9,0.4,1.4,0.7c0.4,0.3,0.8,0.7,1.2,1.1c0.3,0.4,0.6,0.9,0.9,1.4
	c0,0,0,0,0,0.1c0,0,0,0,0,0.1c0,0,0,0,0.1,0c0.1,0.1,0.1,0.3,0.1,0.4c0.1,0.1,0.1,0.3,0.1,0.4c0,0.1,0.1,0.3,0.1,0.3
	c0,0.1,0.1,0.1,0.1,0.2c0,0,0,0,0,0.1c0,0,0,0-0.1,0.1c0,0-0.1,0-0.1,0c0,0-0.1,0-0.1,0l-8.2-0.1c0,0.1,0,0.1,0,0.2c0,0,0,0.1,0,0.1
	c0,0.1,0,0.1,0,0.2c0,0,0,0.1,0,0.1c0,0.1,0,0.2,0,0.3c0,0.1,0,0.2,0,0.3c0,0,0,0.1,0,0.1c0,0,0,0.1,0,0.1c0,0.1,0,0.1,0,0.2
	c0,0,0,0.1,0,0.1c0,0.1,0,0.2,0,0.3c0,0.1,0,0.2,0,0.3c0,0.6,0,1.2,0.1,1.7c0.1,0.5,0.2,1,0.4,1.5c0.2,0.4,0.5,0.8,1,1
	c0.5,0.2,1.1,0.3,1.8,0.3c0.7,0,1.2-0.1,1.8-0.2c0.5-0.2,1-0.4,1.4-0.8c0.4-0.3,0.8-0.8,1.1-1.2C182.5,72.5,182.8,71.9,183,71.3
	L183,71.3z"/>
<path class="st1" d="M188.9,66.3c0.2-0.4,0.5-0.8,0.8-1.1c0.3-0.3,0.7-0.6,1.1-0.9c0.4-0.2,0.9-0.4,1.3-0.5c0.5-0.1,1-0.2,1.5-0.2
	c0.6,0,1.2,0.1,1.7,0.2c0.5,0.2,0.9,0.4,1.2,0.7c0.3,0.3,0.6,0.7,0.7,1.2c0.2,0.5,0.3,1,0.3,1.6v7.4h2.2v0.5H193v-0.5h2.2v-8.5
	c0-0.4,0-0.7-0.1-1c-0.1-0.3-0.2-0.5-0.3-0.7c-0.1-0.2-0.3-0.3-0.6-0.4c-0.3-0.1-0.5-0.1-0.9-0.1c-0.5,0-0.9,0.1-1.4,0.2
	c-0.4,0.2-0.8,0.4-1.2,0.7c-0.4,0.3-0.8,0.7-1.1,1c-0.3,0.4-0.5,0.8-0.7,1.3v7.4h2.3v0.5h-6.8v-0.5h2.2V64.5h-2.2V64h2.8
	c0.3,0,0.5,0,0.7,0c0.2,0,0.4-0.1,0.5-0.1c0.1-0.1,0.2-0.1,0.3-0.2c0.1-0.1,0.2-0.3,0.3-0.4V66.3z"/>
<path class="st1" d="M202,68.2h-0.5l0-4.2h10.3l-8,10.7h2.6c0.7,0,1.4,0,1.9-0.1c0.5-0.1,1-0.3,1.3-0.5c0.3-0.2,0.6-0.6,0.7-1.1
	c0.2-0.5,0.2-1.1,0.2-1.9L211,71v4.2h-10.5l8.1-10.7h-2.2c-0.8,0-1.4,0.1-2,0.2c-0.5,0.1-1,0.2-1.3,0.4c-0.4,0.2-0.6,0.6-0.8,1.1
	C202.1,66.7,202,67.4,202,68.2L202,68.2z"/>
<path class="st1" d="M221.6,69.1h-0.2c-0.6,0-1.1,0.1-1.6,0.1s-1,0.1-1.4,0.2c-0.4,0.1-0.8,0.2-1.1,0.3c-0.3,0.1-0.6,0.2-0.8,0.3
	c-0.1,0.1-0.3,0.2-0.4,0.3c-0.1,0.1-0.2,0.3-0.2,0.5c-0.1,0.2-0.1,0.4-0.1,0.6c0,0.2,0,0.5,0,0.7c0,0.5,0,0.9,0.1,1.2
	c0.1,0.3,0.2,0.6,0.4,0.8c0.2,0.2,0.4,0.3,0.7,0.5c0.3,0.1,0.7,0.1,1.1,0.1c0.4,0,0.8,0,1.2-0.1c0.4-0.1,0.7-0.2,1-0.4
	c0.3-0.2,0.6-0.4,0.8-0.6c0.2-0.3,0.4-0.5,0.6-0.8V69.1z M221.6,68.7v-2.8c0-0.4,0-0.7-0.1-1c-0.1-0.3-0.3-0.5-0.5-0.6
	c-0.2-0.2-0.5-0.3-0.9-0.3c-0.4-0.1-0.8-0.1-1.4-0.1c-0.5,0-0.9,0-1.2,0.1c-0.4,0.1-0.7,0.2-1,0.3c-0.3,0.1-0.5,0.3-0.6,0.4
	c-0.1,0.2-0.2,0.3-0.2,0.6c0,0,0,0.1,0,0.1c0,0,0,0,0.1,0.1c0,0,0,0,0.1,0.1c0,0,0.1,0,0.1,0.1c0,0,0,0,0.1,0.1c0,0,0,0,0.1,0.1
	c0,0,0,0,0.1,0.1c0,0,0.1,0,0.1,0c0,0,0,0,0.1,0.1c0,0,0,0.1,0.1,0.1c0,0,0,0.1,0.1,0.1c0,0,0.1,0,0.1,0.1c0,0.1,0.1,0.1,0.1,0.2
	c0,0.1,0.1,0.2,0.1,0.3c0,0.2,0,0.4-0.1,0.5c-0.1,0.1-0.1,0.3-0.3,0.4c-0.1,0.1-0.3,0.2-0.4,0.3c-0.1,0.1-0.3,0.1-0.5,0.1
	c-0.2,0-0.4,0-0.5-0.1c-0.2-0.1-0.3-0.2-0.4-0.3c-0.1-0.1-0.2-0.3-0.3-0.5c-0.1-0.2-0.1-0.4-0.1-0.6c0-0.4,0.1-0.8,0.3-1.2
	c0.2-0.4,0.6-0.7,1-1c0.5-0.3,1-0.5,1.5-0.7c0.5-0.2,1.1-0.2,1.8-0.2c0.3,0,0.7,0,1,0.1c0.3,0,0.7,0.1,1,0.2c0.3,0.1,0.6,0.2,1,0.3
	c0.3,0.1,0.6,0.3,0.9,0.5c0,0,0.1,0,0.1,0.1c0.1,0,0.1,0,0.1,0.1c0,0,0,0,0.1,0.1c0,0,0,0,0.1,0c0,0,0,0,0.1,0.1c0,0,0,0,0.1,0
	c0.2,0.1,0.3,0.3,0.4,0.4c0.1,0.1,0.2,0.3,0.3,0.4c0.1,0.1,0.1,0.3,0.1,0.5c0,0.2,0.1,0.4,0.1,0.6v4.9l0.1,1.6c0,0.3,0,0.6,0,0.8
	c0,0.2,0.1,0.3,0.1,0.4c0.1,0.1,0.1,0.2,0.2,0.2c0.1,0,0.2,0.1,0.4,0.1c0.1,0,0.1,0,0.2,0c0.1,0,0.1,0,0.2-0.1c0.1,0,0.1,0,0.2-0.1
	c0.1,0,0.1-0.1,0.2-0.1c0,0,0.1-0.1,0.1-0.1c0.1-0.1,0.1-0.1,0.2-0.2c0.1-0.1,0.1-0.1,0.2-0.2c0.1-0.1,0.1-0.2,0.2-0.3l0.4,0.1
	c-0.1,0.3-0.3,0.5-0.5,0.7c-0.2,0.2-0.3,0.3-0.6,0.5c-0.2,0.1-0.4,0.2-0.6,0.3c-0.2,0.1-0.4,0.1-0.7,0.1c-0.3,0-0.7,0-1-0.1
	c-0.3-0.1-0.5-0.2-0.7-0.3c-0.2-0.2-0.4-0.3-0.5-0.6c-0.1-0.2-0.2-0.5-0.3-0.8c-0.2,0.3-0.4,0.6-0.7,0.8c-0.3,0.2-0.6,0.4-1,0.6
	c-0.4,0.1-0.8,0.2-1.2,0.3c-0.4,0.1-0.9,0.1-1.4,0.1c-0.7,0-1.2-0.1-1.8-0.2c-0.5-0.1-1-0.3-1.4-0.5c-0.4-0.3-0.7-0.6-0.9-0.9
	c-0.2-0.3-0.3-0.7-0.3-1.2c0-0.6,0.1-1.1,0.4-1.5s0.6-0.8,1.1-1.1c0.5-0.3,1-0.5,1.6-0.7c0.6-0.2,1.1-0.3,1.7-0.4
	c0.3-0.1,0.7-0.1,1-0.1c0.3,0,0.7-0.1,1-0.1c0.3,0,0.6,0,0.9,0C221.1,68.7,221.3,68.7,221.6,68.7L221.6,68.7z"/>
</svg>
