<?xml version="1.0" encoding="utf-8"?>
<!-- Generator: Adobe Illustrator 24.1.1, SVG Export Plug-In . SVG Version: 6.00 Build 0)  -->
<svg version="1.1" id="Layer_1" xmlns="http://www.w3.org/2000/svg" xmlns:xlink="http://www.w3.org/1999/xlink" x="0px" y="0px"
	 viewBox="0 0 294.9 52.8" style="enable-background:new 0 0 294.9 52.8;" xml:space="preserve">
<style type="text/css">
	.st0{fill-rule:evenodd;clip-rule:evenodd;fill:#FFFFFF;}
	.st1{fill-rule:evenodd;clip-rule:evenodd;fill:#608BA6;}
	.st2{fill-rule:evenodd;clip-rule:evenodd;fill:#C9B5AF;}
</style>
<path class="st0" d="M53.3,25.9h0.9c0,0.1,0,0.3,0,0.5c0,0.1,0,0.2,0,0.3c0,0.1,0,0.3,0,0.4c0,0.1,0,0.2,0,0.4s0,0.5,0,0.8
	s-0.1,0.5-0.1,0.7c-0.1,0.8-0.2,1.6-0.5,2.4c-0.2,0.8-0.4,1.5-0.7,2.3c-0.2,0.7-0.7,1.3-1.2,1.9c-0.5,0.6-1.1,1-1.8,1.3
	c-0.7,0.3-1.5,0.6-2.2,0.7c-0.7,0.1-1.5,0.1-2.2-0.1c-0.8-0.2-1.5-0.4-2.3-0.6c-0.7-0.3-1.5-0.5-2.2-0.8c-0.2-0.1-0.5-0.2-0.7-0.3
	c-0.2-0.1-0.5-0.2-0.7-0.3c-0.2-0.1-0.5-0.2-0.7-0.3c-0.2-0.1-0.4-0.2-0.7-0.3l-0.1,0.2c0,0.1,0,0.1,0,0.2C38,34.9,38,35,38,35.1
	c0,0.1,0,0.1-0.1,0.2s-0.1,0.3-0.2,0.5l-0.1,0.3c-0.3,1-0.7,1.9-1,2.9c-0.4,1-0.8,1.8-1.3,2.7c-0.5,0.9-1.1,1.6-1.8,2.3
	c-0.8,0.7-1.6,1.2-2.6,1.6c-1.1,0.5-2.2,0.8-3.4,0.9c-2.5,0-5-0.8-7-2.4c-1.7-1.5-2.7-3.6-3-5.9c-0.1-1,0.1-2.1,0.4-3.1
	c0.4-1,0.8-2.1,1.2-3c0.5-1,1-2,1.6-2.9c0.1-0.1,0.1-0.2,0.2-0.3s0.1-0.2,0.2-0.4c0.1-0.1,0.1-0.2,0.2-0.3c0.1-0.1,0.1-0.2,0.2-0.3
	c0.1-0.1,0.1-0.2,0.2-0.3c0.1-0.1,0.1-0.2,0.2-0.4c0.1-0.1,0.1-0.2,0.1-0.3c0.1-0.1,0.2-0.2,0.3-0.3L22,26.6l-0.4-0.2l-0.1,0
	c-0.1,0-0.1-0.1-0.1-0.1l-0.2-0.1c-0.1,0-0.1-0.1-0.2-0.1l-1.3-0.8l-1.4-1c-0.5-0.3-0.9-0.7-1.3-1c-0.4-0.4-0.7-0.8-1-1.3l-0.3-0.3
	c-0.1-0.1-0.2-0.2-0.2-0.4c0-0.1,0-0.1-0.1-0.2l-0.1-0.2l-0.1-0.2c0-0.1,0-0.1-0.1-0.1c-0.4-0.9-0.7-1.9-0.7-2.9
	c0-1.1,0.2-2.1,0.7-3.1c0.4-1,1-2,1.8-2.8c0.8-0.8,1.7-1.5,2.7-1.9c0.9-0.4,1.8-0.7,2.7-0.7C23.2,9,24,9,24.8,9.3
	c0.8,0.2,1.5,0.6,2.1,1.2c0.6,0.6,1.1,1.3,1.5,2.1c0.3,0.7,0.6,1.5,0.6,2.3c0.1,0.8,0.1,1.6-0.1,2.4c-0.2,0.9-0.5,1.8-0.9,2.6
	c-0.5,1-1.1,1.9-1.8,2.8c0.6,0.4,1.2,0.7,1.8,0.9s1.1,0.5,1.5,0.8l1.3,0.7l1.3,0.6v0.1l0.1,0v0l0.1,0c0.5,0.2,0.9,0.5,1.3,0.7
	s0.9,0.4,1.4,0.6s1,0.5,1.6,0.8l2,0.9l0.2-0.7c0.1-0.3,0.2-0.5,0.2-0.8c0.1-0.3,0.1-0.6,0.2-0.9c0.1-0.3,0.1-0.6,0.2-0.9
	c0.2-0.7,0.3-1.3,0.6-2c0.2-0.7,0.5-1.3,0.7-2c0.3-0.6,0.6-1.1,1.1-1.6c0.4-0.5,0.9-0.8,1.5-1.1c0.4-0.2,0.9-0.3,1.4-0.4
	c0.5,0,0.9,0,1.4,0.1c0.4,0.1,0.8,0.3,1.1,0.6c0.4,0.3,0.6,0.6,0.8,1c0.2,0.4,0.3,0.8,0.3,1.3c0.1,0.9-0.1,1.7-0.7,2.4
	c-0.3,0.3-0.6,0.5-1,0.7c-0.4,0.2-0.9,0.3-1.3,0.4c-0.4,0-0.8-0.1-1.2-0.3c-0.4-0.2-0.7-0.5-1-0.8c-0.3-0.4-0.6-0.8-0.8-1.2
	l-0.1-0.2c0,0-0.1-0.1-0.1-0.1c0-0.1-0.1-0.1-0.1-0.1c0,0-0.1,0-0.1,0c0,0-0.1,0-0.1,0c-0.2,0.1-0.3,0.2-0.3,0.4
	c-0.1,0.2-0.2,0.5-0.3,0.8c-0.1,0.4-0.3,0.8-0.4,1.1c-0.1,0.4-0.2,0.7-0.4,1.1l-0.1,0.2c0,0,0,0.1,0,0.1l-0.1,0.2L40.2,27
	c0,0.3-0.1,0.5-0.2,0.8l-0.2,0.7c0,0.2-0.1,0.4-0.2,0.5c0.3,0.1,0.5,0.2,0.8,0.4l0.8,0.4c0.1,0.1,0.3,0.1,0.4,0.2l0.5,0.2
	c0.2,0.1,0.3,0.2,0.5,0.2l0.5,0.2c0.7,0.3,1.3,0.6,2,0.8c0.7,0.2,1.4,0.4,2.1,0.6c0.6,0.2,1.3,0.3,2,0.2c0.6-0.1,1.3-0.3,1.8-0.5
	c0.4-0.2,0.7-0.4,1-0.7c0.3-0.3,0.5-0.7,0.7-1.1c0.1-0.4,0.3-0.8,0.3-1.2c0.1-0.4,0.1-0.9,0.2-1.3c0-0.1,0-0.2,0.1-0.3
	c0-0.1,0-0.3,0-0.4c0-0.1,0-0.2,0.1-0.3c0-0.1,0-0.3,0-0.4L53.3,25.9z"/>
<path class="st1" d="M25.1,37.9l-3.2-6.9c-0.5-1.2-1.3-2.2-2.2-3.1c-1-0.9-2.2-1.6-3.5-2c-1.3-0.4-2.6-0.7-4-0.6
	c-1.4,0.1-2.7,0.4-3.9,1c-1.2,0.5-2.3,1.3-3.2,2.3c-0.7,0.9-1,1.9-1,3c0,1.1,0.2,2.3,0.4,3.4c0.3,1.1,0.7,2.3,1.2,3.3
	c0,0.1,0,0.2,0,0.3l0.1,0.3L6,39.2l0.1,0.3c0.1,0.2,0.1,0.3,0.2,0.5l0.2,0.5l1.2,2.5l0.1,0.3L8,43.4L8,43.6l0.1,0.1v0.1
	c0.6,1.2,1.3,2.4,2,3.6c0.7,1,1.6,2,2.4,2.9c0.8,0.9,2,1.4,3.2,1.4c1.5,0,3-0.3,4.4-1c1.2-0.5,2.2-1.3,3.1-2.2
	c0.9-0.9,1.6-2,2.1-3.2c0.5-1.2,0.7-2.4,0.8-3.7c0-1.2-0.3-2.5-0.8-3.6L25.1,37.9z M19.9,26.5L9.9,5.1L5.1,7.3L4.6,6.2l5.9-2.8
	C11,3.3,11.5,3.1,12,2.8c0.3-0.2,0.6-0.5,0.9-0.8c0.2-0.3,0.4-0.6,0.5-0.9c0.1-0.4,0.2-0.8,0.3-1.1l20,43l4.8-2.3l0.5,1.1l-9.9,4.6
	L27.1,42c0,1-0.1,2-0.4,2.9c-0.3,0.9-0.7,1.8-1.3,2.6c-0.6,0.8-1.3,1.5-2,2.1c-0.7,0.7-1.6,1.2-2.5,1.6c-1.8,0.8-3.6,1.4-5.6,1.5
	c-1.9,0.1-3.9-0.2-5.7-0.9c-1.8-0.6-3.5-1.6-4.9-2.8c-1.4-1.3-2.6-2.8-3.4-4.6c-1.7-3.5-1.9-7.6-0.5-11.2c0.6-1.8,1.6-3.5,2.8-5
	C5,26.9,6.4,25.8,8.1,25c1-0.5,2-0.8,3-0.9c1-0.2,2.1-0.2,3.1-0.1c1,0.2,2,0.4,2.9,0.9c1,0.4,1.9,1.1,2.8,1.8L19.9,26.5z"/>
<path class="st1" d="M58.4,22.4c0.5,1.4,0.7,3,0.7,4.5c0,2.8-1.2,5.4-3.3,7.3c-1.1,1-2.3,1.9-3.7,2.5c-1.8,0.9-3.7,1.4-5.7,1.7
	c-1.9,0.2-3.8,0-5.6-0.5c-1.7-0.5-3.3-1.3-4.7-2.4c-1.3-1.1-2.4-2.5-3.1-4.1c-0.9-1.9-1.4-3.9-1.5-6c0-2.1,0.3-4.2,1.1-6.2
	c0.7-2,1.8-3.9,3.2-5.5c1.4-1.5,3.1-2.8,5-3.6C42,9.5,43.1,9.2,44.3,9c1.1-0.2,2.2-0.2,3.3,0c1,0.1,1.9,0.5,2.8,1
	c0.7,0.4,1.3,1.1,1.6,1.8c0.2,0.4,0.3,0.9,0.3,1.3c0,0.4,0,0.8-0.2,1.1c-0.1,0.4-0.4,0.8-0.7,1.1c-0.3,0.3-0.6,0.5-1,0.7
	c-0.3,0.2-0.7,0.3-1.1,0.3c-0.4,0-0.8-0.1-1.1-0.3c-0.4-0.1-0.8-0.4-1.1-0.6c-0.3-0.3-0.5-0.6-0.7-1l-0.1-0.1l-0.1-0.1v-0.1L46.3,14
	c0-0.1,0-0.1,0-0.2c-0.1-0.1-0.1-0.3-0.1-0.4c0-0.2,0-0.4,0-0.6c0-0.2,0-0.3,0-0.5c0-0.1,0.1-0.3,0.1-0.4l0.1-0.2l0.1-0.2h0.1
	l0.1-0.2v-0.1l0.1-0.2c0-0.1,0-0.1,0-0.2c0-0.1,0-0.2,0-0.3c-0.1-0.3-0.4-0.5-0.6-0.6c-0.4-0.1-0.9-0.2-1.3-0.1
	c-0.6,0.1-1.2,0.2-1.7,0.4c-0.8,0.2-1.5,0.5-2.3,0.9c-1.4,0.6-2.6,1.4-3.7,2.5c-0.9,0.8-1.4,1.8-1.7,2.9c-0.2,1.4,0,2.7,0.3,4.1
	c0.5,2,1.2,3.9,2.1,5.7l1.3,2.7c0.8,1.7,1.7,3.3,2.7,4.8c0.7,1,1.7,1.9,2.7,2.6c1,0.5,2,0.7,3.1,0.6c1.3-0.1,2.6-0.5,3.8-1.1
	c1.3-0.6,2.4-1.3,3.5-2.2c0.9-0.9,1.7-1.9,2.3-3c0.6-1.1,0.9-2.4,0.9-3.7c0.1-1.4,0-2.8-0.4-4.2L58.4,22.4z"/>
<path class="st2" d="M25.4,22l0,0.1h0L25.4,22l0.1,0c0.5-0.6,0.9-1.3,1.3-2c0.4-0.8,0.7-1.5,1-2.4c0.3-0.7,0.4-1.5,0.4-2.3
	c0-0.8-0.2-1.6-0.6-2.4c-0.6-1.3-1.7-2.4-3.1-2.8C23.8,10,23,9.9,22.3,10c-0.8,0-1.5,0.2-2.2,0.6c-0.6,0.3-1.1,0.6-1.6,1.1
	c-0.4,0.4-0.8,0.9-1,1.4c-0.2,0.5-0.3,1.1-0.3,1.6c0,0.6,0.2,1.1,0.4,1.6c0.3,0.5,0.6,1.1,1,1.5c0.4,0.5,0.8,0.9,1.3,1.2l1.6,1.1
	c0.5,0.3,1.1,0.6,1.7,0.9c0.1,0,0.2,0.1,0.3,0.1c0.1,0,0.2,0.1,0.3,0.1c0.1,0.1,0.2,0.1,0.3,0.2c0.1,0,0.2,0.1,0.3,0.1
	c0.1,0,0.2,0.1,0.3,0.1l0.3,0.1c0.1,0.1,0.2,0.1,0.3,0.1c0.1,0,0.2,0.1,0.3,0.1L25.4,22z"/>
<path class="st2" d="M23,27.1c0,0.1,0,0.2-0.1,0.2l-0.1,0.2c0,0.1-0.1,0.1-0.1,0.2c-0.1,0-0.1,0.1-0.1,0.1c0,0.1-0.1,0.1-0.1,0.2
	c0,0,0,0.1-0.1,0.1c-0.1,0.1-0.1,0.1-0.1,0.2l-0.1,0.2c-0.4,0.6-0.7,1.1-0.9,1.7c-0.3,0.6-0.6,1.2-0.8,1.8c-0.2,0.6-0.3,1.2-0.3,1.9
	c0.1,0.6,0.2,1.3,0.5,1.8c0.1,0.1,0.1,0.3,0.2,0.4c0.1,0.1,0.1,0.2,0.2,0.3c0.1,0.2,0.1,0.3,0.2,0.4l0.3,0.3
	c0.6,0.9,1.4,1.6,2.2,2.2c1,0.7,2,1.2,3.1,1.6c1,0.4,2.2,0.6,3.3,0.6c1.1,0,2.1-0.3,3.1-0.7l0.3-0.2c0.1-0.1,0.3-0.1,0.4-0.3
	c0.1-0.1,0.2-0.1,0.3-0.2c0.1-0.1,0.2-0.3,0.3-0.4c0.3-0.3,0.6-0.6,0.8-1c0.3-0.4,0.5-0.8,0.7-1.3c0.2-0.5,0.4-1,0.6-1.5
	c0.2-0.6,0.4-1.3,0.6-2c-0.8-0.4-1.5-0.7-2.1-1l-1.8-0.8l-1.6-0.7c-0.5-0.3-1-0.5-1.5-0.8h-0.1c0,0-0.1-0.1-0.1-0.1l-0.2-0.1
	c0,0,0-0.1,0-0.1l-1.5-0.6c-0.5-0.2-1-0.5-1.5-0.8l-1.7-0.9L23,27.1L23,27.1z"/>
<path class="st1" d="M81.4,28.7v-3.2c0-0.5-0.1-1.1-0.3-1.6c-0.2-0.5-0.6-1-1-1.4c-0.4-0.4-0.9-0.7-1.4-0.9
	c-0.5-0.2-1.1-0.3-1.7-0.3c-0.6,0-1.1,0.1-1.6,0.3c-0.4,0.2-0.7,0.6-0.9,1c-0.2,0.4-0.3,0.9-0.4,1.4c-0.1,0.5-0.2,1-0.2,1.5
	c0,0,0,0.1,0,0.1v2.4c0,0.6,0,1.2,0.1,1.7c0.1,0.5,0.2,1,0.4,1.5c0.2,0.5,0.5,0.9,0.9,1.1c0.6,0.3,1.2,0.4,1.8,0.4
	c0.5,0,1.1-0.1,1.6-0.3c0.5-0.2,1-0.5,1.4-0.9c0.4-0.4,0.7-0.8,0.9-1.2C81.3,29.8,81.4,29.3,81.4,28.7L81.4,28.7z M81.4,23.4v-9.9
	h-2.2V13h2.7c0.2,0,0.5,0,0.7,0c0.2,0,0.3-0.1,0.5-0.1c0.1-0.1,0.2-0.1,0.3-0.2c0.1-0.1,0.2-0.3,0.3-0.4v19.9h2.2v0.5h-4.5v-2
	c-0.2,0.4-0.4,0.7-0.7,1c-0.3,0.3-0.6,0.6-0.9,0.8c-0.4,0.2-0.7,0.3-1.1,0.4C78.3,33,77.9,33,77.5,33c-0.8,0-1.6-0.1-2.4-0.4
	c-0.7-0.3-1.4-0.8-2-1.3c-0.6-0.6-1.1-1.2-1.4-2c-0.3-0.7-0.5-1.5-0.5-2.3c0-1.6,0.6-3.2,1.8-4.3c0.6-0.6,1.2-1.1,2-1.4
	c0.7-0.3,1.5-0.5,2.2-0.5c0.4,0,0.9,0.1,1.3,0.2c0.4,0.1,0.8,0.3,1.2,0.5c0.4,0.2,0.7,0.5,1,0.9C81,22.7,81.3,23.1,81.4,23.4
	L81.4,23.4z"/>
<path class="st1" d="M90.1,12.9c0.2,0,0.4,0.1,0.5,0.2c0.3,0.1,0.6,0.4,0.7,0.7c0.1,0.2,0.1,0.3,0.1,0.5c0,0.2,0,0.4-0.1,0.5
	c-0.1,0.2-0.2,0.3-0.3,0.4c-0.1,0.1-0.3,0.2-0.4,0.3c-0.2,0.1-0.3,0.1-0.5,0.1c-0.2,0-0.4,0-0.5-0.1c-0.2-0.1-0.3-0.2-0.4-0.3
	c-0.1-0.1-0.2-0.3-0.3-0.4c-0.1-0.2-0.1-0.3-0.1-0.5c0-0.2,0-0.3,0.1-0.5c0.1-0.2,0.2-0.3,0.3-0.4c0.1-0.1,0.3-0.2,0.4-0.3
	C89.7,13,89.9,13,90.1,12.9L90.1,12.9z M88.9,21.9h-2.2v-0.5h2.7c0.2,0,0.4,0,0.7,0c0.2,0,0.3-0.1,0.5-0.1c0.1-0.1,0.2-0.1,0.3-0.2
	c0.1-0.1,0.2-0.3,0.3-0.4l0,0l0,0v11.5h2.2v0.5h-6.8v-0.5h2.2L88.9,21.9z"/>
<path class="st1" d="M98.7,24.2c0.1-0.5,0.3-0.9,0.5-1.3c0.2-0.4,0.5-0.7,0.8-1c0.3-0.3,0.6-0.5,1-0.7c0.4-0.2,0.8-0.2,1.2-0.2
	c0.3,0,0.5,0,0.8,0.1c0.2,0.1,0.4,0.2,0.6,0.3c0.2,0.1,0.3,0.3,0.4,0.5c0.1,0.2,0.1,0.4,0.1,0.7c0,0.2,0,0.4-0.1,0.5
	c-0.1,0.2-0.1,0.3-0.3,0.4c-0.1,0.1-0.3,0.2-0.4,0.3c-0.2,0.1-0.3,0.1-0.5,0.1c-0.2,0-0.3,0-0.5-0.1c-0.1-0.1-0.3-0.2-0.4-0.3
	c-0.1-0.1-0.2-0.3-0.3-0.4c-0.1-0.2-0.1-0.3-0.1-0.5c0-0.1,0-0.2,0-0.3c0-0.1,0.1-0.2,0.2-0.3c0-0.1,0.1-0.2,0.2-0.3
	c0.1-0.1,0.2-0.2,0.3-0.2l-0.4-0.1l0,0h-0.1c-0.1,0-0.2,0-0.2,0c-0.1,0-0.1,0-0.2,0c-0.1,0-0.2,0-0.2,0.1l-0.2,0.1
	c-0.2,0.1-0.4,0.3-0.5,0.4c-0.2,0.2-0.4,0.4-0.5,0.5c-0.2,0.2-0.3,0.4-0.5,0.7c-0.1,0.3-0.2,0.5-0.3,0.8c0,0.1-0.1,0.2-0.1,0.3
	c0,0.1,0,0.2-0.1,0.2L99,24.7c0,0.1,0,0.1-0.1,0.2c0,0.1-0.1,0.3-0.1,0.5c0,0.2,0,0.3,0,0.5c0,0.2,0,0.4,0,0.6v5.7h2.5v0.5h-7.2
	v-0.5h2.2V21.9h-2.2v-0.5H97c0.2,0,0.4,0,0.6,0c0.2,0,0.3-0.1,0.5-0.1c0.1-0.1,0.2-0.1,0.3-0.2c0.1-0.1,0.2-0.2,0.3-0.4V24.2z"/>
<path class="st1" d="M108.2,12.9c0.2,0,0.4,0.1,0.5,0.2c0.3,0.1,0.6,0.4,0.7,0.7c0.1,0.2,0.1,0.3,0.1,0.5c0,0.2,0,0.4-0.1,0.5
	c-0.1,0.2-0.2,0.3-0.3,0.4c-0.1,0.1-0.3,0.2-0.4,0.3c-0.2,0.1-0.3,0.1-0.5,0.1c-0.2,0-0.4,0-0.5-0.1c-0.2-0.1-0.3-0.2-0.4-0.3
	c-0.1-0.1-0.2-0.3-0.3-0.4c-0.1-0.2-0.1-0.3-0.1-0.5c0-0.2,0-0.3,0.1-0.5c0.1-0.2,0.2-0.3,0.3-0.4c0.1-0.1,0.3-0.2,0.4-0.3
	C107.9,13,108.1,13,108.2,12.9L108.2,12.9z M107,21.9h-2.2v-0.5h2.7c0.2,0,0.4,0,0.7,0c0.2,0,0.3-0.1,0.5-0.1
	c0.1-0.1,0.2-0.1,0.3-0.2c0.1-0.1,0.2-0.3,0.3-0.4l0,0l0,0v11.5h2.3v0.5h-6.8v-0.5h2.2L107,21.9z"/>
<path class="st1" d="M119.7,30.7l0.4,0.1c-0.1,0.4-0.3,0.7-0.6,1c-0.2,0.3-0.4,0.5-0.6,0.6c-0.3,0.1-0.5,0.3-0.8,0.3
	c-0.3,0.1-0.7,0.1-1,0.1c-0.4,0-0.9-0.1-1.3-0.2c-0.4-0.1-0.7-0.2-1-0.5c-0.3-0.2-0.5-0.5-0.6-0.8c-0.1-0.4-0.2-0.7-0.2-1.1v-8.4
	h-2.3v-0.5h0.8c0.5,0,1,0,1.4-0.2c0.5-0.2,0.9-0.5,1.2-0.9c0.3-0.4,0.6-0.8,0.7-1.3c0.2-0.5,0.3-1,0.3-1.5l0.4-0.1v3.9h3.7v0.5h-3.7
	v8.8c0,0.3,0,0.6,0.1,0.8c0,0.2,0.1,0.4,0.2,0.5c0.1,0.1,0.2,0.2,0.4,0.3c0.4,0.1,0.8,0.1,1.2,0c0.2-0.1,0.4-0.2,0.5-0.3
	c0.2-0.2,0.3-0.3,0.4-0.5C119.4,31.3,119.6,31,119.7,30.7L119.7,30.7z"/>
<path class="st1" d="M127.9,30.7l0.4,0.1c-0.1,0.4-0.3,0.7-0.6,1c-0.2,0.3-0.4,0.5-0.6,0.6c-0.3,0.1-0.5,0.3-0.8,0.3
	c-0.3,0.1-0.7,0.1-1,0.1c-0.4,0-0.9-0.1-1.3-0.2c-0.3-0.1-0.7-0.2-0.9-0.5c-0.3-0.2-0.5-0.5-0.6-0.8c-0.1-0.4-0.2-0.7-0.2-1.1v-8.4
	h-2.4v-0.5h0.8c0.5,0,1,0,1.4-0.2c0.5-0.2,0.8-0.5,1.2-0.9c0.3-0.4,0.6-0.8,0.7-1.3c0.2-0.5,0.3-1,0.3-1.5l0.4-0.1v3.9h3.7v0.5h-3.7
	v8.8c0,0.3,0,0.6,0.1,0.8c0,0.2,0.1,0.4,0.2,0.5c0.1,0.1,0.2,0.2,0.4,0.3c0.2,0.1,0.4,0.1,0.6,0.1c0.4,0,0.8-0.1,1.1-0.4
	c0.2-0.2,0.3-0.3,0.4-0.5C127.7,31.3,127.8,31,127.9,30.7L127.9,30.7z"/>
<path class="st1" d="M139.2,28.9v-4c0-0.5-0.1-1.1-0.2-1.6c-0.1-0.4-0.3-0.8-0.6-1.2c-0.3-0.3-0.6-0.5-1-0.6c-0.5-0.2-1-0.2-1.5-0.2
	c-0.6,0-1.2,0.1-1.8,0.2c-0.4,0.1-0.9,0.3-1.2,0.6c-0.3,0.3-0.6,0.7-0.7,1.1c-0.1,0.5-0.2,1.1-0.2,1.6v4c0,0.6,0.1,1.2,0.2,1.7
	c0.1,0.4,0.3,0.8,0.6,1.1c0.3,0.3,0.7,0.5,1.1,0.7c0.5,0.2,1.1,0.2,1.7,0.2c0.6,0,1.1-0.1,1.7-0.2c0.4-0.1,0.8-0.3,1.1-0.6
	c0.3-0.3,0.5-0.7,0.6-1.1c0.1-0.6,0.2-1.1,0.2-1.7L139.2,28.9z M135.8,20.8c0.8,0,1.5,0.2,2.2,0.5c1.5,0.7,2.6,1.9,3.3,3.3
	c0.3,0.7,0.5,1.4,0.5,2.2c0,0.8-0.2,1.6-0.5,2.3c-0.3,0.7-0.8,1.4-1.4,2c-0.6,0.6-1.3,1-2,1.4c-0.8,0.3-1.6,0.4-2.4,0.4
	c-0.8,0-1.6-0.1-2.4-0.4c-1.5-0.7-2.8-1.9-3.6-3.4c-0.3-0.7-0.5-1.5-0.5-2.3c0-0.7,0.1-1.4,0.4-2.1c0.3-0.7,0.8-1.3,1.3-1.8
	c0.6-0.5,1.2-1,1.9-1.4c0.6-0.3,1.3-0.6,2.1-0.7h0.1c0,0,0.1,0,0.1,0h0.3c0,0,0.1,0,0.1,0L135.8,20.8L135.8,20.8z"/>
<path class="st0" d="M150.8,21.1L150.8,21.1L150.8,21.1L150.8,21.1L150.8,21.1c0.4-0.2,0.7-0.4,1-0.6c0.3-0.3,0.6-0.5,0.9-0.8
	c0.3-0.3,0.5-0.6,0.6-1c0.2-0.4,0.2-0.8,0.2-1.2c0-0.3-0.1-0.7-0.2-1c-0.1-0.3-0.3-0.6-0.6-0.8c-0.3-0.3-0.6-0.4-0.9-0.6
	c-0.4-0.1-0.7-0.2-1.1-0.2c-0.3,0-0.6,0-0.9,0.1c-0.3,0.1-0.5,0.2-0.7,0.4c-0.2,0.2-0.3,0.4-0.5,0.7c-0.1,0.3-0.2,0.5-0.1,0.8
	c0,0.3,0,0.6,0.1,0.9c0.1,0.3,0.2,0.6,0.4,0.8l0.5,0.8l0.6,0.8c0,0,0.1,0.1,0.1,0.1c0,0,0.1,0.1,0.1,0.1l0.1,0.1l0.1,0.1l0.1,0.1
	l0.1,0.1c0,0.1,0.1,0.1,0.1,0.2c0,0,0.1,0.1,0.1,0.1L150.8,21.1z M148.7,22.9C148.7,23,148.6,23,148.7,22.9l-0.1,0.1l-0.1,0.1h-0.1
	l-0.1,0.1l0,0l-0.1,0l-0.1,0.1c-0.5,0.4-1,0.8-1.5,1.2c-0.2,0.2-0.4,0.5-0.5,0.8c-0.1,0.3-0.2,0.6-0.1,0.9v0.2c0,0.1,0,0.1,0,0.2
	v0.2l0.1,0.2c0.1,0.5,0.3,1,0.5,1.5c0.3,0.5,0.6,0.9,1,1.3c0.4,0.4,0.8,0.7,1.3,0.9c0.5,0.2,1,0.3,1.5,0.3h0.2h0.2
	c0.1,0,0.1,0,0.2,0c0.1,0,0.2-0.1,0.2-0.1c0.2-0.1,0.4-0.2,0.6-0.3c0.2-0.1,0.4-0.3,0.6-0.4c0.2-0.2,0.4-0.4,0.6-0.5
	c0.2-0.2,0.4-0.5,0.7-0.8c-0.3-0.3-0.5-0.6-0.8-0.9l-0.6-0.8c-0.2-0.2-0.4-0.4-0.6-0.6l-0.5-0.6h-0.1c0,0,0,0,0-0.1H151V26
	c-0.2-0.2-0.3-0.4-0.5-0.6s-0.4-0.4-0.5-0.7l-0.6-0.8L148.7,22.9L148.7,22.9z M162.5,28.7l0.4,0.2c0,0.1,0,0.1-0.1,0.2
	c0,0.1,0,0.1-0.1,0.1c0,0.1-0.1,0.1-0.1,0.2l-0.1,0.1c-0.1,0.1-0.1,0.2-0.2,0.4l-0.2,0.3c-0.2,0.4-0.4,0.7-0.7,1
	c-0.2,0.3-0.5,0.6-0.8,0.9c-0.3,0.3-0.6,0.5-0.9,0.6c-0.3,0.1-0.7,0.2-1.1,0.2c-0.4,0-0.8-0.1-1.1-0.2c-0.4-0.1-0.7-0.3-1-0.5
	c-0.3-0.2-0.6-0.5-0.9-0.8c-0.3-0.3-0.6-0.5-0.8-0.8c-0.1-0.1-0.2-0.2-0.3-0.3c-0.1-0.1-0.2-0.2-0.3-0.3s-0.2-0.2-0.3-0.3l-0.2-0.3
	l-0.1,0.1c0,0,0,0.1-0.1,0.1c0,0-0.1,0.1-0.1,0.1l-0.1,0.1l-0.2,0.2l-0.1,0.1c-0.4,0.4-0.7,0.7-1.1,1.1c-0.4,0.3-0.7,0.6-1.1,0.9
	c-0.4,0.3-0.8,0.5-1.3,0.6c-0.5,0.1-1,0.2-1.5,0.2c-0.6,0-1.2-0.1-1.7-0.3c-1.1-0.5-2.1-1.4-2.6-2.5c-0.2-0.5-0.4-1.1-0.4-1.7
	c0-0.5,0.1-1,0.3-1.5c0.2-0.5,0.5-0.9,0.8-1.3c0.4-0.4,0.8-0.8,1.2-1.1c0.4-0.4,0.8-0.7,1.3-1l0.1-0.1l0.2-0.1l0.2,0l0.2-0.1L148,23
	l0.2-0.1c0,0,0.1-0.1,0.1-0.1c0.1,0,0.1-0.1,0.2-0.1l-0.1-0.1l-0.1-0.2l-0.1-0.1c0,0,0-0.1,0-0.1l-0.1-0.1c0,0,0-0.1-0.1-0.1
	c-0.1-0.2-0.3-0.4-0.4-0.7s-0.3-0.5-0.4-0.7s-0.3-0.5-0.4-0.8c-0.1-0.3-0.2-0.5-0.2-0.8l-0.1-0.2c0-0.1,0-0.1,0-0.2v-0.4
	c0-0.5,0.1-1,0.3-1.5c0.2-0.5,0.6-0.9,1-1.3c0.8-0.8,1.9-1.2,3-1.2c0.5,0,0.9,0.1,1.4,0.2c0.4,0.1,0.8,0.3,1.1,0.6
	c0.3,0.3,0.5,0.6,0.7,1c0.2,0.4,0.2,0.8,0.2,1.2c0,0.4-0.1,0.8-0.2,1.2c-0.1,0.4-0.3,0.7-0.6,1c-0.3,0.4-0.6,0.7-1,1
	c-0.4,0.3-0.9,0.6-1.4,0.9c0.2,0.3,0.4,0.5,0.6,0.8s0.4,0.5,0.5,0.7l0.5,0.6c0.1,0.2,0.3,0.4,0.4,0.6v0h0.1l0,0h0.1
	c0.2,0.2,0.3,0.4,0.4,0.6l0.5,0.6c0.2,0.2,0.4,0.4,0.6,0.7l0.7,0.8l0.2-0.3c0.1-0.1,0.2-0.2,0.3-0.3c0.1-0.1,0.2-0.2,0.3-0.4
	l0.3-0.4c0.2-0.3,0.4-0.5,0.7-0.8c0.2-0.3,0.5-0.5,0.7-0.7c0.2-0.2,0.5-0.4,0.8-0.5c0.3-0.1,0.6-0.2,0.9-0.2c0.2,0,0.5,0,0.7,0.1
	c0.2,0.1,0.4,0.2,0.6,0.3c0.2,0.1,0.3,0.3,0.4,0.5c0.1,0.2,0.1,0.4,0.1,0.6c0,0.2,0,0.4-0.1,0.6c-0.1,0.2-0.2,0.4-0.3,0.5
	c-0.1,0.2-0.3,0.3-0.5,0.4c-0.2,0.1-0.4,0.1-0.6,0.1c-0.2,0-0.5,0-0.7-0.1c-0.2-0.1-0.3-0.2-0.5-0.4c-0.1-0.2-0.2-0.4-0.3-0.5
	c-0.1-0.2-0.1-0.5-0.1-0.7v-0.1c0,0,0,0,0-0.1c0,0,0-0.1,0-0.1c0,0,0,0-0.1,0s0,0-0.1,0c-0.1,0-0.2,0.1-0.2,0.1
	c-0.1,0.1-0.2,0.2-0.3,0.3c-0.1,0.1-0.3,0.3-0.4,0.4s-0.3,0.3-0.4,0.4l-0.1,0.1c0,0,0,0,0,0l-0.1,0c-0.1,0.1-0.2,0.2-0.3,0.4
	c-0.1,0.1-0.2,0.2-0.3,0.3c-0.1,0.1-0.1,0.2-0.2,0.3c-0.1,0.1-0.1,0.1-0.2,0.2c0.1,0.1,0.2,0.2,0.3,0.3l0.3,0.4l0.1,0.2l0.2,0.2
	l0.2,0.2l0.2,0.2c0.2,0.3,0.5,0.5,0.7,0.8c0.3,0.2,0.5,0.5,0.8,0.7c0.5,0.4,1.1,0.7,1.8,0.7c0.2,0,0.4,0,0.6-0.1
	c0.2-0.1,0.4-0.2,0.5-0.3c0.1-0.1,0.3-0.3,0.4-0.5l0.4-0.6c0,0,0.1-0.1,0.1-0.1c0-0.1,0.1-0.1,0.1-0.2c0,0,0.1-0.1,0.1-0.1
	C162.4,28.9,162.5,28.9,162.5,28.7L162.5,28.7z"/>
<path class="st1" d="M175.4,28.7c-0.1,0.6-0.2,1.3-0.5,1.8c-0.2,0.5-0.6,1-1,1.4c-0.4,0.4-0.9,0.6-1.5,0.8c-0.6,0.2-1.2,0.3-1.8,0.3
	c-0.8,0-1.7-0.1-2.5-0.4c-0.7-0.3-1.4-0.7-2-1.2c-0.6-0.5-1.1-1.1-1.4-1.8c-0.3-0.7-0.5-1.4-0.5-2.1c0-0.8,0.1-1.7,0.5-2.5
	c0.8-1.6,2.1-2.9,3.7-3.7c0.8-0.3,1.7-0.5,2.5-0.5c0.5,0,1,0.1,1.5,0.2c0.4,0.1,0.9,0.3,1.2,0.6c0.4,0.2,0.7,0.5,0.9,0.9
	c0.2,0.3,0.3,0.6,0.3,1c0,0.2,0,0.4-0.1,0.5c-0.1,0.1-0.1,0.3-0.3,0.4c-0.1,0.1-0.3,0.2-0.4,0.3c-0.2,0.1-0.3,0.1-0.5,0.1
	c-0.3,0-0.7-0.1-0.8-0.4c-0.1-0.1-0.2-0.3-0.3-0.4c-0.1-0.2-0.1-0.3-0.1-0.5v-0.3c0,0,0,0,0,0c0-0.1,0-0.1,0-0.2
	c0-0.1,0.1-0.2,0.1-0.2c0-0.1,0.1-0.1,0.1-0.2l0.1-0.1l0.1-0.1l0.1-0.1l0,0l0.1,0l0,0l0.1-0.1c0,0,0-0.1,0-0.1c0,0,0-0.1,0-0.1
	c0-0.1-0.1-0.2-0.1-0.3c-0.1-0.1-0.3-0.2-0.4-0.2c-0.2-0.1-0.5-0.1-0.7-0.1c-0.3,0-0.7-0.1-1-0.1c-0.6,0-1.2,0.1-1.8,0.3
	c-0.5,0.1-0.9,0.4-1.2,0.8c-0.3,0.5-0.5,1-0.6,1.6c-0.1,0.8-0.2,1.7-0.2,2.5v1.3c0,0.8,0,1.5,0.2,2.3c0.1,0.5,0.3,1,0.6,1.5
	c0.3,0.4,0.7,0.6,1.1,0.8c0.5,0.2,1.1,0.3,1.6,0.3c0.6,0,1.2-0.1,1.7-0.2c0.5-0.2,1-0.4,1.4-0.8c0.4-0.3,0.8-0.7,1-1.2
	c0.3-0.5,0.5-1.1,0.6-1.7L175.4,28.7z"/>
<path class="st1" d="M186.2,28.9v-4c0-0.5-0.1-1.1-0.2-1.6c-0.1-0.4-0.3-0.8-0.6-1.1c-0.3-0.3-0.6-0.5-1.1-0.6
	c-0.5-0.2-1-0.2-1.5-0.2c-0.6,0-1.2,0.1-1.8,0.2c-0.4,0.1-0.8,0.3-1.2,0.6c-0.3,0.3-0.6,0.7-0.7,1.1c-0.1,0.5-0.2,1.1-0.2,1.6v4
	c0,0.6,0.1,1.2,0.2,1.7c0.1,0.4,0.3,0.8,0.6,1.1c0.3,0.3,0.7,0.5,1.1,0.7c0.6,0.1,1.1,0.2,1.7,0.2c0.6,0,1.1-0.1,1.7-0.2
	c0.4-0.1,0.8-0.3,1.1-0.6c0.3-0.3,0.5-0.7,0.6-1.1c0.1-0.6,0.2-1.1,0.2-1.7V28.9z M182.8,20.8c1.6,0.1,3.1,0.8,4.1,1.9
	c0.6,0.6,1.1,1.2,1.4,2c0.3,0.7,0.5,1.4,0.5,2.2c0,0.8-0.1,1.6-0.5,2.3c-0.3,0.7-0.8,1.4-1.4,2c-0.6,0.6-1.3,1-2,1.4
	c-0.7,0.3-1.5,0.4-2.4,0.4c-0.8,0-1.6-0.1-2.4-0.4c-0.8-0.3-1.5-0.8-2.1-1.5c-0.6-0.6-1.1-1.3-1.5-2c-0.3-0.7-0.5-1.5-0.5-2.3
	c0-0.7,0.1-1.4,0.4-2.1c0.3-0.7,0.8-1.3,1.3-1.8c0.6-0.5,1.2-1,1.9-1.4c0.6-0.3,1.3-0.6,2.1-0.7h0.1c0,0,0.1,0,0.1,0h0.3
	c0,0,0.1,0,0.1,0L182.8,20.8L182.8,20.8z"/>
<path class="st1" d="M194.8,23.7c0.2-0.4,0.5-0.8,0.8-1.1c0.3-0.3,0.7-0.6,1.1-0.9c0.4-0.2,0.9-0.4,1.3-0.5c0.5-0.1,1-0.2,1.5-0.2
	c0.6,0,1.1,0.1,1.7,0.2c0.9,0.2,1.7,0.9,2,1.9c0.2,0.5,0.3,1.1,0.3,1.6v7.5h2.2v0.5h-6.9v-0.5h2.2v-8.5c0-0.3,0-0.7-0.1-1
	c0-0.3-0.2-0.5-0.3-0.7c-0.2-0.2-0.4-0.3-0.6-0.4c-0.3-0.1-0.6-0.1-0.9-0.1c-0.5,0-0.9,0.1-1.4,0.2c-0.4,0.2-0.9,0.4-1.3,0.7
	c-0.4,0.3-0.8,0.6-1.1,1c-0.3,0.4-0.5,0.8-0.7,1.3v7.5h2.3v0.5h-6.8v-0.5h2.2V21.9h-2.2v-0.5h2.8c0.2,0,0.4,0,0.7,0
	c0.2,0,0.3-0.1,0.5-0.1c0.1-0.1,0.2-0.1,0.4-0.2c0.1-0.1,0.2-0.3,0.3-0.4L194.8,23.7z"/>
<path class="st1" d="M206.7,28.5h0.4c0.1,0.6,0.3,1.2,0.5,1.7c0.2,0.5,0.6,0.9,1,1.3c0.4,0.3,0.8,0.6,1.3,0.8
	c0.5,0.2,1.1,0.3,1.6,0.3c0.4,0,0.8-0.1,1.2-0.2c0.4-0.1,0.7-0.3,1-0.6c0.3-0.2,0.5-0.5,0.6-0.8c0.2-0.3,0.2-0.7,0.2-1.1
	c0-0.3,0-0.7-0.2-1c-0.1-0.3-0.3-0.5-0.5-0.7c-0.3-0.2-0.6-0.4-0.9-0.4c-0.4-0.1-0.8-0.2-1.2-0.1l-2-0.1c-0.4,0.1-0.8,0-1.2-0.1
	c-0.4-0.1-0.7-0.4-1-0.7c-0.3-0.3-0.5-0.6-0.6-1c-0.1-0.4-0.2-0.8-0.2-1.3c0-0.5,0.1-1,0.3-1.5c0.2-0.4,0.5-0.9,0.8-1.2
	c0.4-0.3,0.8-0.6,1.3-0.8c0.5-0.2,1.1-0.3,1.6-0.3c0.2,0,0.4,0,0.6,0.1c0.2,0,0.4,0,0.6,0.1l0.5,0.2l0.5,0.1
	c0.1,0.1,0.3,0.1,0.4,0.2l0.3,0.1c0.1,0.1,0.2,0.1,0.3,0.1h0.2c0,0,0.1,0,0.1,0c0,0,0-0.1,0.1-0.1v-0.1c0,0,0-0.1,0-0.1v-0.6h0.4
	l0.1,3.4h-0.4c-0.1-0.4-0.2-0.9-0.4-1.3c-0.2-0.4-0.4-0.7-0.8-0.9c-0.3-0.3-0.7-0.5-1.1-0.5c-0.5-0.1-1-0.2-1.5-0.2
	c-0.4,0-0.8,0-1.2,0.1c-0.4,0.1-0.7,0.2-1,0.5c-0.3,0.2-0.5,0.4-0.6,0.7c-0.1,0.3-0.2,0.6-0.2,0.9c0,0.3,0.1,0.6,0.2,0.8
	c0.1,0.2,0.3,0.5,0.6,0.6c0.3,0.2,0.6,0.3,1,0.4c0.4,0.1,0.9,0.1,1.3,0.1l1.8-0.1c0.5,0,0.9,0.1,1.3,0.3c0.4,0.2,0.7,0.4,1,0.7
	c0.3,0.3,0.5,0.7,0.6,1.1c0.2,0.5,0.2,0.9,0.2,1.4c0,0.6-0.1,1.1-0.3,1.7c-0.2,0.5-0.5,1-0.9,1.3c-0.4,0.4-0.9,0.7-1.4,0.9
	c-0.5,0.2-1.1,0.3-1.7,0.3c-0.2,0-0.5,0-0.7-0.1c-0.2,0-0.5-0.1-0.7-0.1l-0.6-0.2c-0.2-0.1-0.3-0.1-0.5-0.2l-0.2-0.1l-0.2-0.1
	c-0.1,0-0.1,0-0.2-0.1L208,32l-0.3-0.2c-0.1,0-0.2-0.1-0.2-0.1c-0.1,0-0.1,0-0.2,0.1c0,0-0.1,0.1-0.1,0.2c0,0.1,0,0.2-0.1,0.2
	c0,0.1,0,0.2,0,0.3v0.1h-0.4L206.7,28.5z"/>
<path class="st1" d="M229.9,32.2h2.2v0.5h-4.6v-2.7c-0.2,0.5-0.5,1-0.8,1.5c-0.3,0.4-0.6,0.7-1,0.9c-0.4,0.2-0.8,0.4-1.3,0.5
	c-0.5,0.1-1.1,0.2-1.6,0.2c-0.3,0-0.7,0-1-0.1c-0.3-0.1-0.6-0.1-0.9-0.2c-0.3-0.1-0.5-0.2-0.8-0.3c-0.2-0.2-0.4-0.3-0.6-0.5
	l-0.1-0.1h-0.1l-0.1-0.1c0,0,0,0,0-0.1c-0.1-0.2-0.2-0.3-0.3-0.4s-0.1-0.3-0.1-0.5c0-0.2-0.1-0.4-0.1-0.6c0-0.2,0-0.5,0-0.8v-7.4
	h-2.2v-0.5h3.1c0.1,0,0.3,0.1,0.4,0.1l0.3-0.1c0.1,0,0.1,0,0.2-0.1c0.1,0,0.1-0.1,0.2-0.1l0.1-0.1l0.1-0.1l0.1-0.1
	c0,0,0.1-0.1,0.1-0.1v9.4c0,0.4,0,0.8,0.1,1.2c0.1,0.3,0.2,0.5,0.4,0.7c0.2,0.2,0.4,0.3,0.6,0.4c0.3,0.1,0.7,0.1,1,0.1
	c0.5,0,1.1-0.1,1.6-0.3c0.5-0.2,1-0.6,1.4-1c0.4-0.4,0.8-0.9,1-1.4c0.2-0.5,0.4-1.1,0.4-1.6v-6.3h-2.2v-0.5h3.2
	c0.1,0,0.1,0.1,0.2,0.1c0.1,0,0.1,0,0.2,0h0.1l0.1-0.1c0,0,0.1,0,0.1,0l0.1-0.1c0,0,0.1-0.1,0.1-0.1l0.2-0.1l0.1-0.1
	c0.1-0.1,0.1-0.1,0.2-0.2L229.9,32.2z"/>
<path class="st1" d="M234.7,13.5h-2.2v-0.5h2.8c0.2,0,0.5,0,0.7,0c0.2,0,0.3-0.1,0.5-0.1c0.1-0.1,0.2-0.2,0.4-0.3
	c0.1-0.1,0.2-0.3,0.3-0.4v19.9h2.2v0.5h-6.8v-0.5h2.2L234.7,13.5z"/>
<path class="st1" d="M243.1,25.3h5.3c0.1,0,0.2,0.1,0.2,0.1c0,0,0.1,0,0.1,0c0,0,0.1-0.1,0.1-0.1c0-0.1,0-0.1,0-0.2
	c0-0.5,0-0.9-0.1-1.4c-0.1-0.4-0.2-0.9-0.3-1.3c-0.2-0.4-0.4-0.7-0.8-0.9c-0.4-0.2-0.9-0.3-1.4-0.3c-0.6,0-1.1,0.1-1.6,0.3
	c-0.4,0.2-0.7,0.5-0.8,0.9c-0.1,0.4-0.3,0.9-0.4,1.4S243.1,24.9,243.1,25.3L243.1,25.3z M251.4,28.7l0.5,0.1
	c-0.1,0.6-0.4,1.3-0.7,1.8c-0.3,0.5-0.7,1-1.2,1.3c-0.5,0.4-1,0.6-1.6,0.8c-0.6,0.2-1.2,0.3-1.9,0.3c-0.8,0-1.6-0.1-2.3-0.4
	c-0.7-0.3-1.4-0.8-1.9-1.3c-0.6-0.5-1-1.2-1.4-1.9c-0.3-0.7-0.4-1.5-0.4-2.3c0-0.8,0.1-1.6,0.4-2.3c0.3-0.8,0.8-1.5,1.3-2.1
	c0.5-0.6,1.2-1.1,1.9-1.4c0.7-0.3,1.4-0.5,2.1-0.5c0.5,0,1,0.1,1.5,0.2c0.5,0.2,1,0.4,1.4,0.7c0.4,0.3,0.8,0.7,1.2,1.1
	c0.4,0.4,0.7,0.9,0.9,1.4v0.1h0.1c0.1,0.1,0.1,0.3,0.1,0.4c0.1,0.1,0.1,0.3,0.1,0.4s0.1,0.3,0.1,0.4c0,0.1,0.1,0.1,0.1,0.2
	c0,0,0,0.1,0,0.1c0,0,0,0-0.1,0.1c0,0-0.1,0-0.1,0h-0.1l-8.2-0.1v0.4c0,0.1,0,0.1,0,0.2v0.9c0,0.1,0,0.1,0,0.2V28
	c0,0.6,0,1.2,0.1,1.7c0.1,0.5,0.2,1,0.4,1.5c0.2,0.4,0.6,0.8,1,1c0.6,0.2,1.2,0.3,1.8,0.3c0.6,0,1.2-0.1,1.8-0.2
	c0.5-0.2,1-0.4,1.4-0.8c0.4-0.4,0.8-0.8,1.1-1.2c0.3-0.5,0.6-1.1,0.8-1.6L251.4,28.7z"/>
<path class="st1" d="M257.4,23.7c0.2-0.4,0.5-0.8,0.8-1.1c0.3-0.3,0.7-0.6,1.1-0.9c0.4-0.2,0.9-0.4,1.4-0.5c0.5-0.1,1-0.2,1.5-0.2
	c0.6,0,1.1,0.1,1.7,0.2c0.9,0.2,1.7,1,2,1.9c0.2,0.5,0.3,1.1,0.3,1.6v7.5h2.2v0.5h-6.9v-0.5h2.2v-8.5c0-0.3,0-0.7-0.1-1
	c0-0.3-0.2-0.5-0.3-0.7c-0.2-0.2-0.4-0.3-0.6-0.4c-0.3-0.1-0.6-0.1-0.9-0.1c-0.5,0-0.9,0.1-1.4,0.2c-0.4,0.2-0.9,0.4-1.3,0.7
	c-0.4,0.3-0.8,0.6-1.1,1c-0.3,0.4-0.5,0.8-0.7,1.3v7.5h2.3v0.5h-6.8v-0.5h2.2V21.9h-2.2v-0.5h2.8c0.2,0,0.4,0,0.7,0
	c0.2,0,0.3-0.1,0.5-0.1c0.1-0.1,0.2-0.1,0.4-0.2c0.1-0.1,0.2-0.3,0.3-0.4L257.4,23.7z"/>
<path class="st1" d="M270.4,25.6H270v-4.2h10.3l-8,10.7h2.6c0.6,0,1.3,0,1.9-0.1c0.5-0.1,0.9-0.3,1.3-0.5c0.4-0.3,0.6-0.6,0.7-1.1
	c0.2-0.6,0.3-1.3,0.2-1.9l0.5,0v4.2h-10.6l8.1-10.8h-2.2c-0.7,0-1.3,0.1-2,0.2c-0.5,0.1-0.9,0.2-1.3,0.4c-0.4,0.2-0.7,0.6-0.8,1.1
	C270.5,24.3,270.4,25,270.4,25.6L270.4,25.6z"/>
<path class="st1" d="M290,26.5h-0.2l-1.6,0.1c-0.5,0-1,0.1-1.4,0.2c-0.4,0.1-0.7,0.2-1.1,0.3c-0.3,0.1-0.5,0.2-0.8,0.4
	c-0.1,0.1-0.3,0.2-0.4,0.4c-0.1,0.1-0.2,0.3-0.2,0.5c-0.1,0.2-0.1,0.4-0.1,0.6c0,0.2,0,0.5,0,0.7c0,0.4,0,0.8,0.1,1.2
	c0.1,0.3,0.2,0.6,0.4,0.8c0.2,0.2,0.4,0.4,0.7,0.5c0.4,0.1,0.7,0.2,1.1,0.2c0.4,0,0.8,0,1.2-0.1c0.3-0.1,0.7-0.2,1-0.4
	c0.3-0.2,0.6-0.4,0.9-0.6c0.2-0.3,0.4-0.5,0.5-0.8L290,26.5z M290,26.1v-2.8c0-0.3,0-0.7-0.1-1c-0.1-0.3-0.2-0.5-0.5-0.6
	c-0.3-0.2-0.6-0.3-0.9-0.4c-0.5-0.1-0.9-0.1-1.4-0.1c-0.4,0-0.8,0-1.3,0.1c-0.3,0-0.7,0.1-1,0.3c-0.2,0.1-0.5,0.3-0.6,0.4
	c-0.1,0.1-0.2,0.3-0.2,0.5v0.1c0,0,0,0.1,0.1,0.1c0,0,0,0.1,0.1,0.1c0,0,0.1,0,0.1,0.1l0.1,0.1v0.1l0.1,0.1h0.1l0.1,0.1
	c0,0,0,0.1,0.1,0.1l0.1,0.1c0,0,0.1,0.1,0.1,0.1c0,0.1,0.1,0.1,0.1,0.2c0,0.1,0,0.2,0,0.3c0,0.2,0,0.4-0.1,0.5
	c-0.1,0.1-0.2,0.3-0.3,0.4c-0.1,0.1-0.3,0.2-0.4,0.3c-0.1,0.1-0.3,0.1-0.5,0.1c-0.2,0-0.4,0-0.5-0.1c-0.2-0.1-0.3-0.2-0.4-0.3
	c-0.1-0.1-0.2-0.3-0.3-0.5c-0.1-0.2-0.1-0.4-0.1-0.6c0-0.4,0.1-0.8,0.3-1.2c0.3-0.4,0.6-0.7,1-1c0.5-0.3,1-0.5,1.5-0.7
	c0.6-0.2,1.2-0.2,1.8-0.2c0.3,0,0.7,0,1,0.1c0.3,0,0.7,0.1,1,0.2c0.3,0.1,0.7,0.2,1,0.3c0.3,0.1,0.6,0.3,0.9,0.5
	c0,0,0.1,0.1,0.1,0.1c0.1,0,0.1,0,0.1,0.1l0.1,0.1l0,0l0.1,0c0,0,0,0,0.1,0c0.1,0.1,0.3,0.3,0.4,0.4c0.1,0.1,0.2,0.3,0.3,0.4
	c0.1,0.2,0.1,0.3,0.1,0.5c0,0.2,0.1,0.4,0.1,0.6v5.1l0.1,1.6c0,0.2,0,0.5,0,0.8c0,0.2,0.1,0.3,0.1,0.4c0.1,0.1,0.1,0.2,0.2,0.2
	c0.1,0,0.2,0.1,0.4,0.1h0.2l0.2-0.1l0.2-0.1c0.1,0,0.1-0.1,0.2-0.1l0.1-0.1l0.2-0.2l0.2-0.2l0.2-0.3l0.4,0.1
	c-0.1,0.3-0.3,0.5-0.5,0.7c-0.1,0.2-0.3,0.3-0.5,0.5c-0.2,0.1-0.4,0.2-0.6,0.3c-0.2,0.1-0.5,0.1-0.7,0.1c-0.3,0-0.6,0-1-0.1
	c-0.3-0.1-0.5-0.2-0.7-0.3c-0.2-0.2-0.4-0.3-0.5-0.6c-0.1-0.2-0.2-0.5-0.3-0.8c-0.2,0.3-0.4,0.6-0.7,0.8c-0.3,0.3-0.6,0.4-1,0.6
	c-0.4,0.1-0.8,0.3-1.2,0.3c-0.4,0.1-0.9,0.2-1.4,0.2c-0.6,0-1.2-0.1-1.8-0.2c-0.4-0.1-0.8-0.3-1.2-0.6c-0.4-0.2-0.7-0.5-0.9-0.9
	c-0.2-0.4-0.3-0.8-0.3-1.2c0-0.5,0.1-1,0.4-1.5c0.3-0.5,0.7-0.8,1.1-1.1c0.5-0.3,1-0.5,1.6-0.7c0.6-0.2,1.1-0.3,1.7-0.4
	c0.3-0.1,0.7-0.1,1-0.1l1-0.1h0.9L290,26.1L290,26.1z"/>
</svg>
