<svg id="Layer_1" data-name="Layer 1" xmlns="http://www.w3.org/2000/svg" viewBox="0 0 858.89 743.82"><defs><style>.cls-1{fill:#fff;}.cls-1,.cls-2,.cls-3{fill-rule:evenodd;}.cls-2{fill:#c9b5af;}.cls-3{fill:#608ba6;}</style></defs><polygon class="cls-1" points="214.72 743.82 0 371.91 214.72 0 644.17 0 858.89 371.91 644.17 743.82 214.72 743.82"/><path class="cls-2" d="M679.06,399.27h9.08v22.2c0,2,0,5-1,7.06a204.75,204.75,0,0,1-4,24.23c-2,8.07-4,15.15-6,23.22-3,7.06-7.06,14.13-12.1,19.17s-11.11,10.1-18.17,13.13-15.14,6-22.2,7.06a60.78,60.78,0,0,1-23.23-1c-8.07-2-15.14-4-23.21-6-7.07-3-15.14-5.05-22.2-9.08-2-1-5.05-2-7.07-3s-5-2-7.06-3-5.05-2-7.06-3-5.06-3-7.08-3c0,1,0,1-1,2v2c-1,1-1,1-1,2s0,1-1,2c-1,2-1,3-2,5.05,0,1-1,2-1,3-3,10.1-7.07,19.18-11.1,29.28-4,9.08-8.07,18.17-13.13,27.24A84.16,84.16,0,0,1,478.24,583,96.6,96.6,0,0,1,452,599.12a102,102,0,0,1-34.26,9.08,125,125,0,0,1-37.3-6A88.55,88.55,0,0,1,347.09,584a78.23,78.23,0,0,1-21.19-29.28c-5-10.09-8.08-21.19-8.08-31.29-1-11.1,1-21.2,4-31.28,4-10.1,8.08-21.21,12.11-31.29s10.1-19.18,15.14-29.28c1-1,1-2,2-3s1-2,2-4c1-1,1-2,2-3s2-2,2-3c1-1,1-2,2-3s1-2,2-4a3.68,3.68,0,0,0,1-3c1-1,2-2,2-3-1,0-2-1-3-1-1-1-2-1-4-2-1,0-1,0-2-1a1,1,0,0,1-1-1,0,0,0,0,1,0,0c-1,0-1,0-2-1s-1-1-2-1c-4-3-9.08-6-14.13-9.08-4-3-9.08-6-14.13-10.1-5.05-3-9.08-7.06-13.12-11.09s-8.18-8.12-10.17-13.19l-3-3c-1-1-2-2-2-3s-1-1-1-2-1-1-1-2a3.22,3.22,0,0,0-1-2c0-1-1-1-1-2-4-10.09-7.07-19.18-7.07-29.26a70.61,70.61,0,0,1,7.07-31.29,113.38,113.38,0,0,1,18.17-28.26,102.67,102.67,0,0,1,27.25-19.18c9.09-4,18.17-7.06,27.26-7.06a69.26,69.26,0,0,1,25.27,2,44.86,44.86,0,0,1,21.2,12.11q9.09,7.58,15.14,21.2c3,7.06,6,15.14,6,23.21a65.21,65.21,0,0,1-1,24.23,162.14,162.14,0,0,1-9.07,26.24c-4,9.09-10.09,18.17-18.17,28.26A75.72,75.72,0,0,0,419.71,372c6,3,11.1,5.05,15.14,8.08A93.72,93.72,0,0,1,449,387.15c5,2,9.08,4,13.12,6v1h1v1h1c5.05,2,9.08,5.05,13.13,7.07s9.07,4,14.12,6,10.1,5,16.15,8.07,13.12,6,20.18,9.09c1-2,1-5.06,2-7.07,1-3,2-5.05,2-8.07,1-3,1-6,2-9.09s1-6,2-9.08c2-7.06,4-13.13,6-20.19a157.06,157.06,0,0,1,7.07-20.1A57.43,57.43,0,0,1,560,335.68c4-5.05,9.09-8.07,15.15-11.11a73.77,73.77,0,0,1,14.13-4,67.58,67.58,0,0,1,14.13,1,19.92,19.92,0,0,1,11.1,6c3,3,6,6,8.08,11.09a31.13,31.13,0,0,1,3,13.13c1,4,0,8.08-1,12.11a24.12,24.12,0,0,1-6,11.11,36.15,36.15,0,0,1-10.08,7.06,93.52,93.52,0,0,1-13.19,4.07,50.3,50.3,0,0,1-12.11-2c-3-2-7.06-4-10.09-8.07-3-3-5-7.06-8.08-12.12l-1-2-1-1a1,1,0,0,0-1-1H560c-1,0-2,2-3,4a34,34,0,0,0-3,8.08c-1,4-3,7.06-4,12.11a76.73,76.73,0,0,1-4,11.1c0,1,0,1-1,2v1c0,1,0,1-1,2a29.88,29.88,0,0,0-2,9.09,19,19,0,0,1-2,8.07c-1,2-1,5-2,7.07,0,2-1,4-1,5a30.07,30.07,0,0,1,8.07,4,60.85,60.85,0,0,1,8.08,4c2,1,3,1,4,2,2,1,3,1,5,2s3,2,5.06,2c2,1,3,1,5,2,7.06,3,13.11,6,20.19,8.07l21.19,6a50.85,50.85,0,0,0,21.19,2,78,78,0,0,0,18.17-5c4.05-2,8.08-4.05,10.1-7.07a24,24,0,0,0,6-11.1,26.88,26.88,0,0,0,3-12.11c1-4,1-9.08,2-13.13,0-1,1-2,1-3v-4c0-1,1-2,1-3v-4.05Z" transform="translate(18.38 -28.81)"/><path class="cls-3" d="M220.82,578.75V579A311.13,311.13,0,0,0,241,615.34a219.72,219.72,0,0,0,24.23,29.27c9.08,9.08,19.18,13.12,32.29,14.12s27.26-3,43.41-10.08c12.12-6,23.21-13.13,31.29-22.22a99.91,99.91,0,0,0,21.2-32.29,132.07,132.07,0,0,0,8.07-36.33c0-12.12-3-24.23-8.07-36.34l1-1.09-32.3-69.63c-6-12.12-13.13-22.22-23.22-31.29a102.84,102.84,0,0,0-35.32-21.2,93.93,93.93,0,0,0-40.37-6c-13.13,0-26.25,4-39.38,10.1-14.12,7.06-25.27,14.12-32.3,23.21a47.62,47.62,0,0,0-10.08,30.27c0,11.11,2,23.22,4,34.32,3,11.11,6,22.21,11.11,33.31,0,1,1,2,1,3s1,2,1,3a3.72,3.72,0,0,1,1,3c0,1,1,2,1,3,1,2,2,3,2,5.05,1,2,2,3,2,5l12.11,25.27a3.72,3.72,0,0,1,1,3,3.05,3.05,0,0,0,.82,1.82m122.32-170.4L240,188.32l-48.45,22.2-5-11.11,59.56-28.25a116,116,0,0,0,15.13-6c4-3,7.07-5,9.09-8.07a19.54,19.54,0,0,0,5-9.07,50.28,50.28,0,0,0,2-12.17l201.87,434,48.44-23.21,5.06,11.11-99.88,46.42-21.19-44.41c0,10.09-1,20.19-4.05,29.27a106.57,106.57,0,0,1-13.11,26.25,135.47,135.47,0,0,1-20.24,21.15c-7.07,6-15.14,12.12-25.27,16.15a143.07,143.07,0,0,1-56.56,15.14q-27.26,1.51-57.53-9.09c-19.11-7-35.26-16.11-49.42-28.21S160.19,602.14,151.14,584C143.06,565.81,138,547.64,137,528.46a143.39,143.39,0,0,1,9.08-57.53c7.07-19.17,16.15-36.33,28.26-50.47a132.07,132.07,0,0,1,44.41-33.31A86.79,86.79,0,0,1,249,378.08a108.69,108.69,0,0,1,31.29-1c10.08,2,20.18,4,29.26,9.09a80.44,80.44,0,0,1,27.26,18.16Z" transform="translate(18.38 -28.81)"/><path class="cls-3" d="M730.57,363.94c5,15.13,8.08,30.28,7.07,45.42a94.45,94.45,0,0,1-9.09,40.38c-6,12.1-13.12,23.21-24.22,33.3-10.1,10.1-22.2,18.17-37.31,25.27-19.18,9.09-38.36,15.14-57.53,17.16-18.17,2-37.3,0-56.56-5.05-18.15-5-34.3-13.12-47.43-24.22S481.27,472,474.21,454.81a167.17,167.17,0,0,1-15.14-60.55c0-21.2,3-42.39,11.1-63.6,8.07-22.2,18.17-40.37,32.31-55.51a154.16,154.16,0,0,1,50.45-36.34c12.12-5,23.23-9.07,35.33-11.09a92.31,92.31,0,0,1,33.31,0c11.11,2,20.2,5,28.27,10.09C656.9,242.86,663,248.91,666,256a31.27,31.27,0,0,1,3,13.13c0,4,0,8.07-2,11.1-2,4-4,8.07-7.08,11.1a36,36,0,0,1-10.08,7.07c-3,2-7.06,2-11.11,3a20.32,20.32,0,0,1-11.1-3c-4-2-8.08-4-11.1-7.07a35.79,35.79,0,0,1-7.06-10.09c-.67-.68-1.35-1.35-2-2v-1a1,1,0,0,0-1-1h0v-2c-1-1-1-3-1-4V260c0-2,1-3,1-4s0-1,1-2c0-1,0-1,1-2h1c0-1,0-1,1-2v-1c0-1,0-1,1-2v-2a3.78,3.78,0,0,0-1-3c-1-3-3-4-6-5s-7.15-1.09-12.19-1.09a138.32,138.32,0,0,0-17.16,4c-7.06,2-14.14,5-23.21,9.08a120.69,120.69,0,0,0-37.31,25.27c-9.08,9.09-15.13,19.19-17.16,29.28-2,11.1-1,24.23,4.05,40.37q6,24.22,21.19,57.54l13.13,27.24Q549.4,458.8,563,477c9.09,12.1,18.17,21.19,27.26,26.23a54.68,54.68,0,0,0,31.28,6,106.81,106.81,0,0,0,38.35-11.11c14.14-6,25.27-14.13,35.33-22.2,10.1-9.09,17.16-19.18,23.22-30.29,5-11.09,9.08-23.21,9.08-36.33a125.73,125.73,0,0,0-4-42.39Z" transform="translate(18.38 -28.81)"/><path class="cls-1" d="M396.44,359.91v1h1v-1h1c5.05-6,9.08-13.13,13.13-20.2s7.06-15.14,10.08-23.21a65.88,65.88,0,0,0,4-23.21,53.93,53.93,0,0,0-6-24.23,45.91,45.91,0,0,0-13.13-17.16c-5-5-11.1-8.07-18.17-10.09a50.38,50.38,0,0,0-21.23-2,46,46,0,0,0-22.2,6,64.65,64.65,0,0,0-16.15,11.1c-4,4-7.08,9.08-10.1,14.14a45.68,45.68,0,0,0-3,16.15c0,5,2,11.09,4.05,16.15s6,10.08,10.09,15.13a154.86,154.86,0,0,0,13.12,12.11c5,4,10.09,7.06,16.15,11.11,5,3,11.1,6,17.16,9.08,1,0,2,1,3,1s2,1,3,1c1,1,2,1,3,2,1,0,2,1,3,1s2,1,3,1,2,1,3,1a3.73,3.73,0,0,0,3,1c1,0,2,1,3,1Z" transform="translate(18.38 -28.81)"/><path class="cls-1" d="M372.22,411.4c0,1,0,2-1,2,0,1,0,1-1,2s-1,1-1,2l-1,1c0,1-1,1-1,2s0,1-1,1c-1,1-1,1-1,2s0,1-1,2c-3,6-7.06,11.1-9.08,17.16A143.65,143.65,0,0,0,347,460.84,63.82,63.82,0,0,0,344,480c1,6,2,12.12,5,18.17,1,1,1,3,2,4s1,2,2,3,1,3,2,4l3,3c6,8.07,13.11,16.14,22.2,22.21a182,182,0,0,0,31.29,16.15,96.84,96.84,0,0,0,33.31,6c11.09,0,21.19-3,31.28-7.06,1,0,2-1,3-1,1-1,3-2,4.05-3,1,0,2-1,3-2s2-3,4-4a88.09,88.09,0,0,0,8.07-10.09,54.16,54.16,0,0,0,7.07-13.12q3-7.57,6-15.14c2-6,4.05-13.12,6-20.19-8.07-4-15.14-7.06-21.2-10.09-7.07-3-13.12-6-18.17-8.08s-11.1-5-16.15-7.06c-5-3-10.09-5-15.14-8.08h-1l-1-1c-1,0-1,0-2-1v-1l-15.14-6a109.94,109.94,0,0,1-15.15-8.07c-5-3-11.09-6-17.15-9.09-6-4-13.12-7.06-21.2-11.09Z" transform="translate(18.38 -28.81)"/></svg>